<?xml version="1.0" encoding="UTF-8"?>
<svg id="Layer_1" data-name="Layer 1" xmlns="http://www.w3.org/2000/svg" viewBox="0 0 80.81 88.26">
  <path d="M4.65,24.07c0,.31,0,.62,0,.93h.93s0,.93,0,.93h1.86v.93h1.86v.93h1.86v.93c.93.01,1.86-.02,2.79,0,.1,4.33-.08,8.69,0,13.02h.93s0,2.79,0,2.79h-3.72v-.93h-1.86v-7.44h-3.72v2.79H1.86v-14.88c.93,0,1.86,0,2.79,0ZM7.44,27.79h-3.72v4.65h6.51v-1.86h-.93v-1.86h-1.86v-.93Z"/>
  <path d="M29.77,24.07c1.24,0,2.48,0,3.72,0v5.58h-3.72v-1.86h-1.86v.93h-1.86v.93h-1.86v.93h-1.86v3.72h1.86v-.93h2.79v-1.86h6.51v8.37h-2.79v1.86h-2.79v1.86h-3.72v1.86h-1.86v.93h-2.79v-5.58h5.58v-2.79h5.58v-3.72h-2.79v2.79h-7.44v-7.44h2.79c.01-.62-.01-1.24,0-1.86.93-.02,1.86.02,2.79,0,0-.31,0-.62,0-.93.62,0,1.24,0,1.86,0,0-.62-.01-1.24,0-1.86.62-.01,1.24.01,1.86,0,0-.31,0-.62,0-.93Z"/>
  <path d="M9.3,13.84c2.17-.05,4.34.04,6.51,0v6.51h3.72v-6.51c2.17.04,4.35-.05,6.51,0,.04,1.86-.03,3.72,0,5.58h2.79c-.02.93.02,1.86,0,2.79-1.24,0-2.48,0-3.72,0v-1.86h-1.86v-2.79h-1.86v5.58h-1.86v1.86h-3.72v-1.86h-1.86v-5.58h-1.86v2.79h-1.86v1.86h-3.72v-2.79h2.79c.03-1.86-.04-3.72,0-5.58Z"/>
  <path d="M25.12,10.12c.01.62-.01,1.24,0,1.86h2.79v.93s.93,0,.93,0v.93s.93,0,.93,0v.93s.93,0,.93,0v.93s1.86,0,1.86,0v.93s.93,0,.93,0v.93s.93,0,.93,0v.93s.93,0,.93,0v24.19h-.93s0,.93,0,.93h-1.86v.93h-1.86v.93s-.93,0-.93,0c0,.31,0,.62,0,.93-.62,0-1.24,0-1.86,0v.93s-1.86,0-1.86,0c0,.31,0,.62,0,.93-.62,0-1.24,0-1.86,0v.93s-1.86,0-1.86,0c0,.31,0,.62,0,.93-.93,0-1.86,0-2.79,0v.93c-1.86-.01-3.72.01-5.58,0,0-.31,0-.62,0-.93-.62,0-1.24,0-1.86,0,0-.31,0-.62,0-.93h-1.86v-.93h-1.86v-.93c-.31,0-.62,0-.93,0,0-.31,0-.62,0-.93h-1.86v-.93c-.31,0-.62,0-.93,0,0-.31,0-.62,0-.93-.93,0-1.86,0-2.79,0,0-.31,0-.62,0-.93h-.93s0-.93,0-.93h-.93s0-22.32,0-22.32h.93v-1.86h.93s0-.93,0-.93h.93s0-.93,0-.93h.93s0-.93,0-.93h.93s0-.93,0-.93h.93s0-.93,0-.93h1.86v-.93s.93,0,.93,0v-.93s1.86,0,1.86,0v-.93s.93,0,.93,0v-.93c4.65.03,9.3-.03,13.95,0ZM26.05,13.84c0-.31,0-.62,0-.93h-2.79v-.93h-12.09v.93s-1.86,0-1.86,0c0,.31,0,.62,0,.93-.31,0-.62,0-.93,0v.93s-.93,0-.93,0v.93s-1.86,0-1.86,0v.93s-.93,0-.93,0v.93s-.93,0-.93,0v.93s-.93,0-.93,0v1.86h.93s0,.93,0,.93h.93s0,.93,0,.93h.93s0,.93,0,.93h1.86v.93s.93,0,.93,0c0,.31,0,.62,0,.93-.62,0-1.24,0-1.86,0v-.93c-.62,0-1.24,0-1.86,0,0-.31,0-.62,0-.93h-.93s0-.93,0-.93H.93v18.6h.93s0,.93,0,.93h.93s0,.93,0,.93h1.86v.93h1.86v.93s.93,0,.93,0v.93s1.86,0,1.86,0v.93h1.86v.93s.93,0,.93,0v.93s.93,0,.93,0v.93s3.72,0,3.72,0v-18.6h-.93s0-.93,0-.93h-.93s0-.93,0-.93c-.31,0-.62,0-.93,0,0-.31,0-.62,0-.93h-1.86v-.93h-1.86v-.93s-1.86,0-1.86,0c0-.31,0-.62,0-.93.93,0,1.86,0,2.79,0v.93s13.02,0,13.02,0v-.93s.93,0,.93,0v-.93s1.86,0,1.86,0v-.93h1.86c0-.31,0-.62,0-.93.62,0,1.24,0,1.86,0v-.93s.93,0,.93,0v-.93s.93,0,.93,0v-1.86h-.93s0-.93,0-.93h-.93s0-.93,0-.93h-.93s0-.93,0-.93h-1.86v-.93s-.93,0-.93,0v-.93c-.31,0-.62,0-.93,0ZM23.26,27.79c-.31,0-.62,0-.93,0v.93s-2.79,0-2.79,0v.93s-.93,0-.93,0v19.53h1.86v-.93h1.86v-.93h1.86v-.93h1.86v-.93h1.86v-.93h1.86v-.93h1.86v-.93h1.86v-.93s.93,0,.93,0v-20.47h-.93s0,.93,0,.93h-1.86v.93s-1.86,0-1.86,0c0,.31,0,.62,0,.93-.62,0-1.24,0-1.86,0,0,.31,0,.62,0,.93-.31,0-.62,0-.93,0v.93s-.93,0-.93,0c0,.31,0,.62,0,.93-.93,0-1.86,0-2.79,0,0,.31,0,.62,0,.93Z"/>
  <path d="M25.12,10.12c0-.31,0-.62,0-.93h-9.3s0-2.79,0-2.79h5.58V1.74h2.79V0h27.91v2.67h3.72v3.72h-4.65v-1.86h-10.23v44.65h-8.37v.93h7.44v15.81h-4.65v2.79h3.72v18.6h-4.65v-17.67h-7.44v14.88h-3.72v-2.79h-2.79v-26.05h-10.23v-2.79H2.79v12.09h3.72v6.51h8.37v-6.51h-2.79v1.86h-2.79v-5.58h9.3v19.53h-7.44v-4.65h-6.51v-3.72h-1.86v-1.86H0v-26.05c.62,0,1.24,0,1.86,0,0,.31,0,.62,0,.93.93.01,1.86-.02,2.79,0,.01.62-.01,1.24,0,1.86.93.01,1.86-.02,2.79,0,.02.93-.02,1.86,0,2.79,1.55,0,3.1-.01,4.65,0,0,.31,0,.62,0,.93.62,0,1.24,0,1.86,0,0,.31,0,.62,0,.93h8.37c0-.62-.01-1.24,0-1.86,1.24,0,2.48,0,3.72,0,0-.62-.01-1.24,0-1.86,1.24,0,2.48,0,3.72,0,0-.62-.01-1.24,0-1.86,1.24,0,2.48,0,3.72,0v-1.86h2.79V15.7h-2.79v-1.86h-1.86v-1.86h-2.79v-.93h-1.86v-.93c-.62,0-1.24,0-1.86,0ZM35.35,4.53h-9.3v3.72h2.79v1.86h1.86v.93h2.79v1.86h1.86V4.53ZM36.28,54.77h-13.02v12.09h5.58v-6.51h7.44v-5.58Z"/>
  <polygon points="79.07 46.4 79.07 73.37 78.14 73.37 78.14 75.23 76.28 75.23 76.28 81.74 71.63 81.74 71.63 71.51 72.56 71.51 72.56 69.65 75.35 69.65 75.35 56.63 73.49 56.63 73.49 59.42 71.63 59.42 71.63 68.72 66.98 68.72 66.98 62.21 63.26 62.21 63.26 72.44 66.05 72.44 66.05 84.53 61.4 84.53 61.4 68.72 59.53 68.72 59.53 51.98 65.12 51.98 65.12 55.7 70.7 55.7 70.7 51.05 72.56 51.05 72.56 46.4 79.07 46.4"/>
  <polygon points="67.91 4.53 67.91 7.33 68.84 7.33 68.84 22.21 74.42 22.21 74.42 8.26 79.07 8.26 79.07 11.05 80.81 11.05 80.81 40.81 80 40.81 80 43.6 75.35 43.6 75.35 38.95 76.28 38.95 76.28 37.09 78.14 37.09 78.14 34.3 79.07 34.3 79.07 22.21 75.35 22.21 75.35 25 73.49 25 73.49 34.3 68.84 34.3 68.84 24.07 65.12 24.07 65.12 38.02 70.7 38.02 70.7 49.19 66.05 49.19 66.05 40.81 63.26 40.81 63.26 4.53 67.91 4.53"/>
  <path d="M55.81,50.12v1.86h1.86v19.53h.93v13.95h-3.72v-1.86h-.93v-14.88h-8.37v19.53h-3.72v-38.14h13.95ZM50.23,52.91h-3.72v4.65h-1.86v6.51h9.3v-9.3h-3.72v-1.86Z"/>
  <path d="M55.81,7.33v12.09h-4.65v22.33h-3.72v-13.95h-1.86v19.53h-2.79V7.33h13.02ZM53.95,11.98h-9.3v12.09h4.65v-8.37h4.65v-3.72Z"/>
  <path d="M61.4,3.6v40h1.86v7.44h-4.65v-10.23h-2.79v6.51h-7.44v-3.72h4.65v-22.33h4.65V3.6h3.72ZM58.6,23.14h-1.86v1.86h-1.86v11.16h4.65v-11.16h-.93v-1.86Z"/>
</svg>