<?xml version="1.0" encoding="UTF-8"?>
<svg id="Layer_2" data-name="Layer 2" xmlns="http://www.w3.org/2000/svg" viewBox="0 0 2873.48 2346.18">
  <g id="Layer_1-2" data-name="Layer 1">
    <g>
      <path d="M1638.19,0c43.24,10.18,55.61,29.68,86.26,57.33l91.7-.95,7.07,50.97c53.25,11.42,78.28,48.88,115.27,73.6,173.04,115.68,329.9,220.14,462.58,383.66,102.8,126.7,161.11,287.07,296.04,383.09,30.21,21.5,36.04,62.06,56.82,92.07,16.32,23.57,47.16,45.07,62.71,68.04,50.65,74.84,65.53,210.81,52.24,298.36-1.71,11.28-20.09,35.96-21.08,44.83-1.89,17.11,13.38,42.96,6.55,62.63l-167.36,23.3c-10.35,1.44-17.75,12.79-29.93,13.95-14.62,1.4-119.17-27.37-125.29-24.15l-9.18,19.81c10.3,17.9,16.1,48.92-12.43,51.04l-16.36-17.78c-16.16,10.68-43.66,112.48-58.73,137.4-5.62,9.29-139.7,150.22-148.54,156.53-17.59,12.55-42.5,14.69-60.65,26.61-99.45,65.3-156.46,167.66-259.67,234.18-93.64,60.35-430.52,209.99-533.27,211.57-136.49,2.1-314.51-29.18-443.27-76.38-143.31-52.54-495.52-288.91-582.18-412.96-42.54-60.89-46.25-125.85-62.35-195.61l-75.23,52.44-22.34-7.44c4.28-46.98-4.59-95.28-22.29-139.43-6.18-3.07-76.72,72.97-78.23,78.5-3.43,12.59,5.02,23.07,1.13,31.71-1.03,2.29-34.93,21.43-38.06,32.87l-40.87-3.24L0,1601.41v-39.94c42.05-182.49,41.23-379.75,99.37-559.74,95.18-294.71,213.34-569.58,492.29-720.7,185.63-100.57,453.21-203,663.4-226.46,120.28-13.43,263.06,5.51,372.23-54.56h10.9ZM1615.26,224.01c11.21-13.21,20.7-40.43,44.63-51.52-3.51-4.79-8.9-6.01-14.21-7.48-57.5-15.83-324.66-6.82-384.47,11.54-22.62,6.94-42.1,22.25-63.37,31.79-8.41,3.78-16.45-1.72-17.23-1.36-1.43.66-.08,13.45-19.49,22.37-29.96,13.78-67.28,13.72-78.11,17.96-.9.35-3.14,11.16-10.08,13.71-73.02,26.76-123.38,39.12-199.68,55.1-9.71,2.03-16.3-7.62-20.95-7.01-5.33.7-12.64,14.98-16.97,15.9-25.07,5.28-53.58.51-78.66,17.49-25.17,17.05-91.82,96.15-119.1,122.4-14.91,14.35-58.46,39.05-70.3,54.99-1.49,2.01-.52,19.74-7.12,31.02-9.01,15.39-55.62,38.3-22.61,60.9-1.47,4.86-15.67-2.09-30.59,16.65-5.92,7.44-78.64,153.5-81.05,162.27-9.38,34.03-5.22,93.68-12.24,133.01-12.53,70.19-43.97,151.85-53.65,218.72-8.47,58.46,3.88,127.5,3.23,186.59l17.34-.84c178.67-115.5,350.99-248.44,514.89-383.97,33.08-27.35,71.45-49.33,103.46-78.14,112.39-101.14,177.81-246.65,278.22-357.34,43.11-47.52,152.69-126.44,181.1-174.82,19.1-32.53,15.56-91.95,59.02-115.44l23.18,8.12-2.16,49.33,59.93-29.08-7.23-5.38c5.59-6.9,19.28-11.6,24.28-17.49ZM1101.11,188.24c-2.21-.67,2.97-13.88-13.16-14.04-1.96-.02-26.01,17.39-19.99,27.29l-174.31,65.41c5.1,8.02,8.19,4.22,14.59,3.86,86.71-4.85,176.31-55.22,255.99-85.5l-7.46-7.5c-13.97,7.93-39.79,15.29-55.66,10.48ZM1909.05,237.56c-25.7-16.09-52.61-30.13-76.68-48.8l-22.88,15.75,28.45,27.87c-37.94-18.14-77.66,1.66-107.33-29.18-48.7-4.47-242.71,286.07-278.35,335.35-27.08,37.45-64.07,64.53-79.51,109.08,12.85,11.91,32.64,28.01,41.57,42.79,26.61,44.06,8.02,62.56,51.14,108.65,74.39,79.52,436.87,297.48,541.33,330.34,14.63,4.6,139.79,29.67,149.33,29.1,21.64-1.3,22.75-20.41,39.87-21.8,25.74-2.08,119.37,56.65,141.6,75.97,34.82,30.27,55.15,64.58,70.88,107.07l88.65,34.73c22.27-6.37,16.22-240.15,12.74-274.09-9.36-91.44-48.91-315.8-98-388.62-119.81-177.7-317.99-338.52-502.81-454.22ZM817.25,243.32l-10.87,7.19,10.87.02v-7.22ZM788.22,254.24c-5.07-2.85-15.95,9.45-14.53,10.81,4.93,2.9,15.97-9.4,14.53-10.81ZM1590.94,254.24h-7.22v3.54h7.22v-3.54ZM766.4,265.11l-12.79,3.51-1.67,10.99,14.11-4.01.35-10.49ZM701.02,308.71h-7.22v3.54h7.22v-3.54ZM1547.36,315.95c-6.09-6.7-42.22,32.8-32.62,43.55,13.74-12.63,34.42-21.49,32.62-43.55ZM621.11,395.84l-20.9,11.7-.83,17.32,21.73-29.03ZM428.59,468.46c-9.74-9.26-56.35,48.6-63.41,58.21-15.54,21.15-88.93,143.47-97.11,164.35-2.19,5.6-9.08,21.8-3.09,26.29l16.55-1.93c44.92-84.61,120.71-153.29,147.05-246.92ZM483.08,544.72l-14.66,6.19,2.03,15.55,12.63-21.74ZM439.44,639.09l27.57-47.13-4.4-14.31c-23.24-8.57-47.76,48.89-23.17,61.44ZM1656.33,1125.64c-82.23-94.93-176.3-185.89-297.67-227.06l-112.89-108.67-24.43.47c-120.19,123-259.96,225.1-371.37,357.06,56.14,3.59,101.56-44.81,152.62-59.81,22.84-6.71,253.45-11.82,273.82-5.16,31.18,10.19,55,50.86,94.72,57.79,7.85,6.95,30.83,103.37,30.33,114.41-.85,18.5-25.08,38.76-14.41,61.28l41.68,6.41,6.08,15.15c-18.14,40.1-25.53,19.04-52.54,27.58-3.88,1.23-1.63,8.12-2.01,11.17l-18.11-3.65-18.14,63.62,14.47,10.85c-19.83,7.17-6.75,26.52-11.8,42.65-29.75,95.01-82.66,52.75-156.92,57.39-77.91,4.88-153.37,34.68-218.12,39.63-111.28,8.51-289.03-15.26-351.42-116.99-9.48-15.45-28.16-79.81-40.35-78.71-56.79,56.29-131,102.56-144.1,186.68l18.28,7.19c-32.28,39.74-11.91,41.48-2.04,74.08,25.14,83.07,120.93,173.6,181.89,240.09,106.31,115.94,211.59,191.66,363.02,250.77,80.83,31.56,155.55,13.95,232.58,25.03,94.66,13.61,173.62,38.22,276.42,36.59,39.09-.62,196.29-18.96,225.6-35.65,21.53-12.26,22.82-40.42,37.2-57.23,7.59-8.87,71.8-62.58,81.86-48.75l5.39-19.86c70.05-35.26,166.39-67.76,230.2-111.52,89.35-61.28,151.96-139.25,222.16-217.29,48.63-54.05,116.94-87.99,121.7-170.61l-179.22,191.6c-74.08-4.96,80.8-147.23,88.34-157.22,13.07-17.32,25.48-35.64,36.64-54.29l-9.31-63.55c-18.91,20.46-62.07,63.21-88.82,67.35-22.44,3.47-51.74-4.21-77.77-1.59-58.38,5.89-127.38,38.48-193.12,42.97-38.38,2.62-65.98-9.62-90.61-10.33-12.46-.36-85.8,27.96-112.24,20.17l-23.7-15.88,6.91-24.82c-31.8-9.22-80.05-13.05-108.59-25.69-20.44-9.05-45.03-36.51-62.41-50.19-16.55-13.03-51.42-17.51-54.43-47.6-1.23-12.25,38.41-224.89,44.81-242.17,11.22-30.27,14.17-47.56,49.83-53.72ZM297.89,886.04c.11-.44,8.17,4.08,9.14.38,3.75-14.24,7.28-29.29,8.94-43.96-14.01,7.1-61.87,125.42-41.66,130.7,28.84-16.74,18.7-67.04,23.58-87.12ZM2548.52,891.21c-1.54-.98-8.83-6.19-9.47-5.17,9.69,89.3,34.73,172.19,36.55,263.26,1.7,85.03-10.22,173.29-21.29,256.89l43.38,54.84c54.18,6.14,112.45,34.23,164.86,6.05-12.06-29.66-26.03-68.31-41.83-98.98-21.33-41.4-51.41-76.3-65.18-131.95-16.08-65-3.57-141.3-36.42-199.82l21.03-35c-.69-7.13-85.58-106.3-91.63-110.13ZM1649.09,1016.82c22.63,40.81,43.3,92.73,101.59,70.78-4.84-17.32-93.52-88.19-101.59-70.78ZM1064.25,1136.56c19,4.18,41.07,7.31,58.05-5.41l-52.24-13.01-5.81,18.42ZM1027.95,1129.38l-71.03,21.57-4.79,12.04c22.87,25.35-11.79,58.11-41.86,43.03l-11.32-18.75-79.07,19.11-16.37,20.29c-12.91,1.07-17.72-8.43-34.34-6.39-9.01,1.11-96.1,77.5-82.45,99.89l-32.9,1.6c9.72,41.8-6.27,74.84,16.7,112.32,46.06,75.14,104.51,70.22,180.95,76.85,19.88,1.72,43.14,19.73,65.39,6.6l404.99-346.05-7.87-6.85c-38.57,6.65-53.85-38.35-97.04-22.51-17.31,30.11-41.06,21.35-62.68,34.32-93.88,56.32-192.05,180.71-284.13,247.18l-31.04,10.69c-3.67-3.9,27.49-44.61,32.47-49.2,10.13-9.35,42.59-23.59,45.91-26.73,7.12-6.72,4.21-19.38,10.78-25.54,43.04-40.35,94.63-82.57,135.74-118.49,18.89-16.5,41.5-24.88,58.34-43.38l-9.93-7.97-135.28,9.86c6.5-29.22,23.14-20.41,45-24.99l5.83-18.52ZM2762.37,1151.97l-8.99,15.07c5.24,14.66,34.44,139.31,52.54,132.95,16.87-21.13-18.57-151.7-43.55-148.02ZM1872,1294.1c11.39-11.18,90.9-73.22,78.5-86.58-45.51-34.03-83.94-22.93-132.1-31.38-44.56-7.82-100.9-40.38-146.49-7.64-52.05,37.37-38.8,184.16-57.4,244.06l85.52,60.26c58.61-58.67,112.67-120.48,171.98-178.71ZM2197.59,1220.1c8.06,1.73,25.98-6.09,21.75-16.26l-18.42-3.96-3.33,20.23ZM1284.8,1484.11c4.46-18.57,26.05-28.98,32.88-41.53,13.47-24.71,4.66-40.53,8.7-56.34,3.77-14.73,18.93-23.76,19.6-46.14.44-14.68-9.83-26.22-9.47-38.4.66-22.24,30.08-58.7,5.65-85.21l-10.69-3.8c-63.6,53.96-125.34,109.97-189.66,163.02-34.16,28.17-103.52,67.43-125.75,101.47-1.22,1.86-9.7.32-9.88.79-1.35,3.61,5.66,24.4,0,32.63l278.62-26.49ZM2143.07,1234.7l-25.32-5.55c5.56,3.09,28.39,21.81,25.32,5.55ZM2346.47,1296.36c11.39-10.49-78.17-62.76-90.72-60.33l-12.93,5.81c-9.1,18.22,91.38,50.55,103.65,54.52ZM2003.59,1436.49c13.17-12.51,111.53-118.68,109.88-126.91l-119.71-69.48c-89.12,66.22-169.77,146.15-237.24,234.48l-48.79,30.06,40.37,5.92,8.05,14.33,18.64-18.22c21.85-4.12,34.31,18.56,30.53,36.62,81.31-20.75,137.47-49.03,198.28-106.8ZM504.87,1318.18l-17.02,4.7-4.75,13.42,10.9,2.03,10.88-20.15ZM315.96,1347.19c1.43-9.39,6.4-18.53-7.2-18.1l7.2,18.1ZM1983.28,1517.81c91.41,8.64,167.42-30.1,256.33-43.57,11.14-1.69,21.43,5.33,35.09,2.96,11.62-2.02,54.83-34.02,53.14-47.38l-174.77-92.9-169.78,180.9ZM422.54,1388.49c7.73-4.87,69.53-35.06,56.88-48.53l-27.26,21.75c-11.22-17.69-46.78,5.59-34.95,27.08l-17.64,16.51c6.58,7.18,20.24-15.09,22.96-16.81ZM315.99,1354.49h-10.85s5.49,14.47,5.49,14.47l5.36-14.47ZM395.9,1408.99h-7.22v3.54h7.22v-3.54ZM83.5,1452.5c.43-.65.36-10.35,0-10.85-4.72-6.45-4.26,17.33,0,10.85ZM90.76,1499.71l3.42-15.83-14.25-5.91c-.54,8.49-2.08,22.65,10.83,21.74ZM90.75,1525.12l-1.74-18.1c-8.44,2.68-3.01,20.87,1.74,18.1ZM875.38,1557.89l-32.65-7.28c2.35,6.91,33.11,25.85,32.65,7.28ZM330.5,1586.86l-1.75-32.64-9.25,23.42,10.99,9.22ZM334.15,1605.02l-5.43-10.78-5.4,5.42,10.83,5.36ZM2408.2,1739.37v-7.22h-3.54v7.22h3.54ZM502.58,1821.61c-10.65-11.45-39.94-66.1-57.51-67.62l-16.56,26.46c32.52,15.31,10.23,17.47,11.02,18.85,2.18,3.8,9.8,5.01,12.57,9.22,23.91,36.35,56.53,77.23,91.02,108.73,29.14,26.62,77.13,57.37,110.66,79.97-37.17-49.74-74.74-103.57-116.16-149.67-8.68-9.66-26.61-16.87-35.04-25.94ZM1997.76,2033.55c-53.64,4.77-100.18,36.89-141.63,68.94,48.05.46,111.12-34.33,141.63-68.94ZM755.5,2051.68l-5.86-14.19-15.86,5.19,21.72,9ZM897.17,2149.68l-3.65-12.62-54.43-12.72c-2.59,18.12,53.67,32.86,58.08,25.34ZM1529.21,2262.26l-530.23-63.5c45.5,31.48,110.34,36.17,163.59,50.61,29.82,8.09,61.84,31.44,96.6,34.49,21.93,1.93,59.64-7.12,82.98-6.19,68.48,2.75,122.65,24.75,187.06-15.42ZM1038.83,2255.07l-18.14,10.83,14.59,2.06,3.55-12.89Z"/>
      <path d="M1201.24,1738.28l-20.74,4.78-2.32,21.25-14.05-10.45-23.55,10.93,5.12-14.8,34.78-19.7c-32.87-12.49-36.54,23.3-63.67,30.76-16.95,20.38-10.71,45.87-41.63,52.8l10.42,10.17c-27.32,37.52-51.76,86.88.76,116.61,70.65,40,251.62,4.52,316.82-38.53,35.7-23.58,97.42-79.83,88.35-125.35,10.16-16.29,45.96-17.79,51.57,1.7-13.52,71.5-20.12,127.63,58.04,159.57,75.37,30.8,165.57,11.44,238.39-17.3,25.68-40.09,45.67-86.44,41.98-134.12l-43.83,1.16c-30.4-53.04,95-74.44,94.93-2.96-.02,22.97-43.03,165.42-58.65,181.23-33.89,34.29-216.99,50.09-265.77,41.2-43.09-7.85-104.57-69.2-117.18-111.75-22.25,12.49-35.7,32.79-57.96,47.37-102.41,67.03-275.52,93.21-389.12,43.85-98.34-100.35,36.8-300.16,162.11-271.01l-4.81,22.6Z"/>
      <path d="M1452.96,1358.05l9.05-14.48c39.18-26.8,99.59-40.09,64.9,28.55l-73.94-14.06Z"/>
      <polygon points="1865.3 1612.34 1873.94 1628.23 1858.28 1633.82 1852.53 1625.1 1865.3 1612.34"/>
      <polygon points="1879.74 254.19 1881.55 256.01 1879.74 257.82 1879.74 254.19"/>
    </g>
  </g>
</svg>