<?xml version="1.0" encoding="UTF-8"?>
<svg id="Layer_2" data-name="Layer 2" xmlns="http://www.w3.org/2000/svg" viewBox="0 0 4545.1 2502.85">
  <g id="Layer_1-2" data-name="Layer 1">
    <g>
      <path d="M2849.72,2502.85c-.88-10.6-1.16-11.56,10.25-10.25l-3.4,10.25h-6.85Z"/>
      <polygon points="4545.1 2205.07 4545.1 2208.49 4531.36 2213.59 4545.1 2205.07"/>
      <path d="M1276.66,8.63l8.8,32.39-21.45,14.55-15.43-13.68,1.68,20.48c13.12-2.17,25.98-4.74,39.51-3.5,101.09,9.23,205.61,10.8,307.2,21.49,16.33,10.46,36.08,24.64,54.02,31.65,185.02,72.33,439.08,154.33,590.67,279.1,217.99,179.43,439.89,489.52,482.67,773.08,16.27,107.87-33.04,252.33-51.95,359.12-3.91,22.1.65,59.46-4.49,84.17-13.52,65.01-54.1,49.24-59.7-8.21l-30.4,23.93-231.55-65.01c-2.58,32.79-7.98,79.8-18.97,112.78-6.43,19.28-21.87,32.62-24.8,40.11-44.58,114.14-98.57,296.71-204.62,363.94-1.19.75-1.38-10.36-6.7-6.85-45.04,29.7-77.4,82.13-143.91,92.42l3.35-13.8-100.18,26.74-45.29-2.7,2.96,16.7-12.58,6.36c-23.79-11.78-41.07,11.55-46.68,11.38-2.01-.06-.85-9.9-10.38-7.12-1.05.31-4.52,9.23-12.36,11.65-18.43,5.69-39.21,6.79-54.63,11.12-16.68,4.69-40.1,28.79-68.45,18.37l3.46,6.78c-48.89,16.29-83.62-4.41-125.82-9.64-4.3-.53-11.73,12.48-33.35,6.12-10.25-3.02-10.34-12.75-13.99-13.56-3.82-.85-8.62,7.82-16.02,6.35-12.61-2.51-26.54-16.29-28.16-16.51-78.93-10.36-177.68,14.7-266.91-.51-166.24-28.33-229.96-95.19-363.97-173.65-13.59-7.96-47.67-14.95-58.01-20.76-91.13-51.19-230.2-297.81-277.9-396.56-11.63-24.07-18.28-67.13-29.19-85.44-2.33-3.91-14.78-3.21-16-4.67-.5-.6,3.42-5.85-3.72-15.08-4.99-6.45-13.41,8.69-15.18-26.06l-66.96,20.99,4.19,6.13c9.64,2.73,64.46-22.08,45.54,4.09l-22.19.15-13.88,27.2c-29.79-17.23-46.65-23.75-78.73-5.1l5.05,15.35-11.84-6.78-10.65,18.51-28.6,5.46-16.45-18.07-.91-30.11c-37.34-1.03-55.17-32.58-53.09-68.23l-93.67,15.78-16.04-24.75,100.66-73.9c9.13-32-4.8-66.29-4.79-96.86.09-226.82,107.4-399.61,199.45-594.9,84.64-179.58,110.26-295.57,268.05-433.79,56.99-49.92,233.29-149.11,305.75-173.64,61.12-20.7,127.59-20.6,189.48-36.55,71.53-18.43,138.12-66.68,218.07-38.51ZM1178.3,52.15c-8.29.15-20.67-2.74-23.95,6.78,5.53-2.79,26.76,4.58,23.95-6.78ZM1037.9,79.55c-.19-.3-7.21-1.38-6.87,1.71-.69,6.8.82,6.65,5.18,1.67,1.26-.8,2.4-2.27,1.69-3.38ZM1058.45,79.55c-4.39-2.1-11.83,5.18-10.27,6.76,4.23,2.12,11.84-5.08,10.27-6.76ZM1414.6,100.02l-1.73-13.63-5.59,16.55-81.66.53c-2.69-25.63-4.54,0-12.09.22-15.77.46-35.3-13.61-56.42-3.68l3.41-10.2c-13.9-5.04-12.97,12.87-14.03,13.33-2.21.96-36.23,4.41-46.75,8.1-24.54,8.6-134.57,51.92-154.13,66.69-16.63,12.56,1.5,2.61,2.51,17.95l-21.6-9.48c-145.99,69.12-311.69,141.08-425.34,259.32-86.89,90.4-75.84,140.73-113.06,249.83-36.29,106.39-81.91,212.14-118.91,315.86-29.31,82.18-75.02,167.17-48.89,255.83l12.11,1.92c272.14-138.3,525.16-341.97,729.44-547.47l214.46-254.95,23.57,2.96.98,24.95-40.32,60.61,98.02-95.4,20.96-1.39,10.9,16.37c-.43,18.8-115.99,134.91-131.48,162.71-2.65,4.76-9.7,22.64-3.59,23.79,45.85-22.87,181.91-232.56,213.16-235.59l28.3,8.22,27.28-43.86,57.01,7.55c15.75,24.25-27.23,39.62-38.21,51.31-36.64,39.01-69.03,82.79-105.38,122.28-16.57,18-53.86,43.78-69.42,62.44-5.55,6.65-3.41,14.18-5.54,16.91-1.41,1.81-9-.14-9.5.57-2.03,2.88,4.94,35.69-24.01,25.43l-80.74,104.58c37.4,18.32,67.73,26.38,102.88,51.43,32.27,23.01,67.19,58.95,97.08,86.07,2.3,2.09-1.02,13.73,2.2,16.63,6.41,5.78,40.1,19.83,45.49,24.71,4.49,4.06,4.11,18.15,8.65,22.21,19.83,17.74,56.51,51.51,76.18,65.89,16.66,12.18,56.02,21.4,66.82,35.9,8.06,10.82,6.1,29.19,13.65,34.28,4.16,2.8,27.1,4.31,40,11.37,105.18,57.56,206.97,140.1,322.25,191.38,43.19,19.21,59.12,16.82,104.57,18.72l192.3,91.7c6.86-2.77,25.22-130.39,25.92-145.65,17.81-388.38-62.41-623.47-337.81-894.46-57.97-57.04-121.72-96.51-179.41-149.29-5.29-4.84-2.63-14.49-3.47-15.4-1.5-1.61-6.61,8.36-13.89,5.61-22.07-8.34-52.74-34.39-83.38-36.84l-2.02-13.23-68.25-22.68-31.17,14.49-18.92-12.42c-3.07-4.77,3.87-12.41,1.21-16.28-22.61-32.94-153.99-35.87-194.6-45.32ZM1215.98,89.8l-8.5.02-5.13,10.22,13.64.02v-10.26ZM1229.68,89.8c-7.89-5.98-7.64,6.54-1.67,6.8,3.01.13,1.95-6.59,1.67-6.8ZM1390.65,89.8l-20.51,1.67,20.51,5.13v-6.8ZM1079.01,93.22c-64.23-12.73-70.65,21.37-104.09,43.03-12.08,7.83-158.65,74.13-139.07,93.84l239.82-121.39,3.34-15.48ZM1462.58,93.22h-10.23v6.8h10.23v-6.8ZM894.05,117.2c-4.39-2.1-11.83,5.18-10.27,6.76,4.23,2.12,11.84-5.08,10.27-6.76ZM880.32,124.04c-4.52,2.02-17.05.73-17.07,6.77,4.87-.52,16.88-.38,17.07-6.77ZM832.4,144.59c-4.39-2.1-11.83,5.18-10.27,6.76,4.23,2.12,11.84-5.08,10.27-6.76ZM772.12,234.94c4.7-4.72,11.8-7.45,15.68-13.42-5.12-.76-10.51-.82-15.39,1.36-56.42,25.18-183.86,112.15-215.3,165.11-9.97,16.79-15.68,40.36-26.11,57.72,85.37-65.01,165.35-134.7,241.11-210.77ZM685.12,233.58c-6.22-2.91-57.87,14.99-47.93,23.89l47.93-23.89ZM630.3,267.74c.28-.21,1.34-6.94-1.67-6.8-5.97.26-6.22,12.78,1.67,6.8ZM2195.51,545.01c.21-43.04-32.89-79.17-40.93-118.33-3.4-16.54,17.91-29.6-12.48-59.3-8.17-7.99-87.07-47.56-102.81-54.7-29.12-13.2-59.74-25.08-90.29-34.65l246.52,266.98ZM359.78,644.23l37.35-5.27c48.75-77.31,83.06-159.6,116.71-244.55-19.95,12.84-120.63,180.3-112.95,188.25l17.07,6.8-24.09-1.79-34.1,56.57ZM2253.75,517.67h-6.81v3.34h6.81v-3.34ZM2301.67,548.45l39.39,95.88,35.98,92.36c-14.33-65.99-41.71-130.09-75.37-188.23ZM2433.32,649.63c-26-33.26-52.13-64.41-83.59-92.7l-6.74,3.28c18.62,37.53,39.73,78.66,52.81,118.4,23.23,70.57,27.82,147.49,48.18,215.41,21.21,70.75,64.92,135.39,92.01,202.4,51.78,128.08,91.72,262.77,91.21,401.89l6.71,5.08c14.73-16.87,48.35-241.86,48.11-275.42-1.32-183.61-136.49-434.79-248.7-578.35ZM2270.86,572.37v-6.8h-3.34v6.8h3.34ZM2277.69,575.84c-8.94-2.39-8.1,6.27-8.27,11.97-.74,24.36,74.14,199.38,89.76,233.52,12.04,26.31,27.15,53.45,45.26,76.24l-126.74-321.72ZM380.34,873.6c40.49-81.06,63-170.52,88.97-256.7-24.05,35.95-35.8,82.96-49.32,123.52-14.63,43.93-29.09,88.05-39.65,133.18ZM383.7,654.56l-23.94-.04-27.37,140.34,51.31-140.29ZM1074.07,772.93c7.04-9.5,12.63-25.18,22-34.6,1.93-9.21-7-2.07-9.03-.41-18.83,15.37-42.84,49.68-61.17,67.17-145.32,138.64-319.19,287.8-488.47,394.94-33.76,21.36-184.9,92.81-195.97,115.04-1.08,2.17-4.23,27.06-2.56,29.36l48.26-1.87c-9.89-8.81,20.55-30.68,22.64-31.13,6.12-1.33,11.29,8.88,21.35,5.18,64.6-23.79,180.06-113.87,237.73-158.82,133.1-103.73,305.69-250.49,405.23-384.85ZM301.52,764.11l-82.97,154.91c-41.48,122.7-99.58,245.34-84.8,378.98,13.78,8.55,44.67-114.33,49.66-126.58,20.92-51.36,59.5-99.39,76.02-153.35,24.14-78.85,23.29-173.54,42.09-253.96ZM1266.99,819.49c-4.42-1.99-11.34-1.03-16.16-.09l-.9,21.94c101.73,80.66,188.76,176.88,311.99,227.32-33.28-42.18-76.72-69.8-114.82-105.98-52-49.39-74.22-92.69-142.97-124.1-9.27-4.23-25.69-6.22-36.14-10.33-1.39-.55-.11-8.35-1-8.76ZM1243.4,887.25l-47.99-49.71-3.48,24.16c6.85,7.5,26.09,3.84,27.52,5.03,1.47,1.22-1.48,19.97,23.95,20.52ZM1341.01,849.64v3.42l1.71-1.71-1.71-1.71ZM1175.35,886.81l-7.26-9.79-20.5,22.25-3.82,28.82-14.98-6.51-12.07,20.46,10.2-3.41c1.07,22.11-23.39,11.48-39.35,20.54-22.94,13.02-41.92,45.29-60.14,59.68-148.17,117.07-302.62,228.34-457.85,336.53-33.21,23.15-65.97,48.64-98.5,72.65l8.48,18.84-6.77,15.41,30.79,15.37-29.12,1.74c-6.75,34.18-20,78.12-13.68,113,10.63,58.67,140.7,242.32,183.3,289.14,178.81,196.52,259.18,164.34,496.69,229.26,51.57,14.09,116.8,48.07,167.54,58.47,83.18,17.06,407.77-23.19,493.41-51.44,36.8-12.14,255.43-150.3,287.66-178.02,64.37-55.36,185.23-237.63,204.62-319.2,5.95-25.04,13.01-60.54,12.69-86.29-4.56-12.45-110.92-73.6-129.35-82.93-24.66-12.48-60.77-16.09-83.55-29.45-18.3-10.74-35.63-38.18-53.06-49.53-167.53-109.12-365.53-176.21-538.19-276.91-44.9-26.19-84.93-63.18-129.14-89.9-55.08-33.29-129.65-48.06-171.1-102.94l10.28-15.36c-14.51-7.99-28.53.45-37.24-.5ZM373.43,904.43c-23.1,4.89-52.32,104.05-44.48,109.48,14.43.15,12.43-28.07,16.37-36.65,10.67-23.21,27.56-42.14,28.11-72.84ZM2418.13,1120.02c-5.57-52.62,4.44-110.73-34.16-154l34.16,154ZM2459.23,1010.49v-6.8h-3.34v6.8h3.34ZM2524.31,1167.96c-16.02-51.23-32.78-110.42-64.99-154.02,14.29,53.6,37.55,106.04,64.99,154.02ZM2527.73,1400.69c-6.32-91.88-19.77-187.87-71.84-266.96,2.06,91.37,29.58,175.23,59.96,260.06l11.88,6.89ZM2385.64,1161.12v3.42l1.71-1.71-1.71-1.71ZM2399.81,1189.64c-2.15-3.76-13.87-21.92-19.29-21.66,12.66,95.35-3.02,187.4-13.11,281.78,4.95,12.01,34.81,10.42,45.91,15.71,20.9,9.96,19.24,27.43,25.44,32.76,3.67,3.15,43.94,29.18,47.92,25.66l-54.01-87.99c13.34-81.63,9.3-172.38-32.85-246.26ZM236.42,1171.4l-9.81,5.56c-7.71,26.78-34.53,68.93-14.99,92.41l-2.63,14.97-18.78-3.45,1.08,28.83-25.52,21.91-28.59-2.78,3.42,25.78,89.9-47.21,5.91-136.01ZM2582.54,1380.17c-3.21-51.43-10.68-105-37.6-150.57l37.6,150.57ZM644,1233.02l-17.1,13.63,13.78-1.59,3.32-12.04ZM599.48,1260.4c-3.56-3.62-72.57,47.1-71.9,58.12,24.62-11.92,45.69-26.99,67.02-44.21l4.88-13.91ZM301.49,1328.83l-23.99,15.62,12.64,35.37c25.44-4.16,14.25-33.77,11.35-50.99ZM144,1369.86c6.18.86,10.05.22,13.59-5.13-3.41-.1-14.65.29-13.59,5.13ZM236.46,1363.09c-11.73-8.62-102.27,31.05-89.03,44.46l28.9,10.67,42.66-10.97-4.88-27.12,22.3-3.38.06-13.67ZM367.23,1417.25l19.63-12.09,3.84-30.11-5.36-8.59-35.42,19.54,17.31,31.25ZM322.02,1397.29l-32.7,10.05-1.47,34.43,43.06-20.47-8.88-24.01ZM89.92,1432.22c13.56-.36,14.06,6.29,19.24-12.85l-18.35-10.95-6.82,26.58c6.95,8.58,4.8-2.75,5.93-2.78ZM2233.22,1428.05l-13.66-10.22c-.85,9.08,6.04,11.55,13.66,10.22ZM203.51,1515.1l13.87-35.89,18.63-8.77-11.99-42.15-55.67,26.18,1.19,45.36,25.87,20.61,8.09-5.33ZM2248.64,1434.94v3.42l1.71-1.71-1.71-1.71ZM2493.48,1472.59c-1.36-6.42-3.74-21.13-10.2-23.93.81,9.07-.41,20.19,10.2,23.93ZM400.8,1482.87l-6.77,1.67,10.25,8.54-3.47-10.21ZM2579.11,1486.28h-41.02c.72,26.26,11.43,52.3-20.57,63.3l89.01,35.94c4.53-41.9-37.41-48.92-27.42-99.24ZM383.75,1513.69l11.97,23.85,4.58-11.26-16.54-12.59ZM2429.42,1522.78c-1.65-2.25-1.07-6.29-1.01-9.12l-10.2,3.56,7.67,14.69,12.77-2.84c.12-1.88-7.17-3.48-9.22-6.29ZM2625.39,1537.62v3.42l1.71-1.71-1.71-1.71ZM455.65,1551.36l-10.25-.03.02,13.66,10.23-13.63ZM2180.52,1909.43c5.23-10.77,15.94-19.11,18.44-31.58l-10.25-15.02,2.61,16.48c-29.58,28.16-46.2,68.18-77.95,94.73-21.29,17.8-44.29,19.38-54.6,25.79-4.53,2.82-28.84,25.76-44.62,35.41-3.29,2.01-12.21-2.67-13.81-1.28-1.02.89,5.01,9.24,3.46,10.17-5.36,3.24-57.82,22.93-51.44,30.81,29.99,15.08,43.56-1.93,71.92-6.77l-5.14,20.49c25.96-22.01,65.48-41.84,89.23-64.85,30.75-29.8,54.43-77.89,72.15-114.39ZM2125.34,2016.82v3.42l1.71-1.71-1.71-1.71ZM935.15,2092.16l-17.12-3.43,12.24,10.02,4.88-6.59ZM2000.3,2102.36c5.98-7.89-6.54-7.63-6.81-1.67-.13,3.01,6.59,1.95,6.81,1.67ZM1921.55,2099.01c-6.52-.36-15.22-.81-17.12,6.76,6.31.32,15.09.95,17.12-6.76ZM975.48,2103.54c-12.25-1.17-27.66-.2-40.33-1.11,78.08,40.89,184.38,69.08,273.97,71.78-24.01-16.65-63.5-14-77.67-40.38-56.83,7.3-111.53-26.03-155.97-30.29ZM1895.86,2109.23v3.42l1.71-1.71-1.71-1.71ZM1964.36,2109.23v3.42l1.71-1.71-1.71-1.71ZM1945.52,2119.46l-10.25-6.78v6.8s10.25-.02,10.25-.02ZM1044.75,2184.49l-10.25-6.78v6.8s10.25-.02,10.25-.02ZM1633.83,2194.85c-16.65,2.55-42.12.66-54.78,13.6,17.5-2.44,39.61-4.13,54.78-13.6ZM1133.78,2211.89c.28-.21,1.34-6.94-1.67-6.8-5.97.26-6.22,12.78,1.67,6.8ZM1568.75,2205.11l-54.76,6.76c17.78,3.58,38.9,3.89,54.76-6.76ZM1308.45,2208.54c-5.1.7-14.69-2.94-13.66,3.34,5.1-.7,14.69,2.94,13.66-3.34Z"/>
      <path d="M4293.84,975.07c-1.49,2.14-32.46,36.46-34.87,38.73-7.03,6.63-38.43,11.48-35.81,30.92l39.54-.12,11.82,15.65-5.37,28.99c33.01,20.09,79.14,11.95,90.44,57.42l-25.71,27.3-69.62-26.51c5.2,32.62,71.86,100.81,24.14,124.68-5.11,2.55-21.4-7.99-20.79,3.68,30.37,73.25,37.33,151.88,60.7,226.89,19.65,63.07,56.61,125.03,77.96,185.65,22.15,62.88,32.06,137.55,52.63,197.15,8.35,24.21,94.55,150.39,31.75,153.69-26.29-4.93-35.97-38.02-45.05-59.88l-75.2-.11-.89,43.59-36.73-5.95-19.73,23.42-33.4-23.35c-17.94,24.35-42.44,7.48-66.8,10.18l-2.22,33.45-26.84,4.18-22.28-27.37c-17.8,101.83-38.67,29.3-59.66,16.85-9.02-5.35-19.8-1.04-25.93-4.89-10.15-6.37-9.56-18.46-24.54-23.37-30.21-9.91-78.64,17.02-103.51,4.12l-12.47-15.15c.06-72.6,10.91-132.4,30.65-201.29l-28.87-146.05c-6.07-4.97-130.16,27.26-154.53,27.04-61.55-.57-182.83-59.24-189.93-127.96-1.61-15.59,15.43-76.11,6.4-81.49l-81.56-2.25-2.5,33.39-16.54,10.84c-34.16-4.16-70.98.71-102.4.5-11.03-.07-21.27-10.52-34.19-10.3-11.68.2-12.68,10.5-16.39,11.06-25.7,3.86-44.67-12.18-69.69-14.51-70.69-6.6-147.12,5.91-205.98,47.17l-38.6-23.37-2.3,19.95c-18,2.55-49.25,3.91-47.79-23.49l32.95-27.25c-89.72-11.72-73.76-54.95,3.41-70.23l-44.64-24.15,47.21-33.92-33.47-27.61,20.61-49.47-68.35-1.82c-16.6-8.53-26.25-52.9-32.67-59.79-5.23-5.62-17.58-3.17-21.3-7.87-48.21-60.93-6.57-82.68,39.65-122.88l-1.44-33.87,42.17-7.38,54.32,48.39c35.92,19.36,238.38-15.03,290.77-16.63,123.41-3.78,252.2,16.52,376.87,8.49,8.94-.58,14.73-13.7,30.19-14.42,5.47-.25,103.82,8.79,109.12,10.18,17.97,4.71,29.72,22.35,50.46,28.32,158.64,45.68,299.9-102.48,400.09-203.11l30.34,9.45c2.99,9.68-8.05,28.52-13.62,36.52ZM4120.42,1137.13c11.29,5.25,57.89-31.39,51.31-37.63-5.17,1.75-59.89,29.85-51.31,37.63ZM3771.05,1157.69h47.95l-43.18-6.49-4.77,6.49ZM4204.35,1164.62l-5.09,5.09,1.59,1.59,3.51-3.34v-3.34ZM4198.24,1204.72l3.87-20.69-9.76-5.79-13.71,30.78,19.6-4.29ZM4158.03,1267.23l-41.04,11.95c1.21,7.98,40.75-3.18,41.04-11.95ZM3808.7,1284.38c-.62-.4-9.77-.34-10.23,0-6.08,4.44,16.35,4.01,10.23,0ZM2985.01,1287.76v3.42l1.71-1.71-1.71-1.71ZM3795,1287.8c-.62-.4-9.77-.34-10.23,0-6.08,4.44,16.35,4.01,10.23,0ZM3325.78,1301.47l-51.33,5.09c9.55,3.4,50.14,10.08,51.33-5.09ZM4191.83,1308.76c-4.26-2.76-88.5,14.04-98.74,18.41l97.08,4.34,5.69-7.78-4.03-14.96ZM3127.13,1311.76h-6.81v3.34h6.81v-3.34ZM3894.32,1349.42c-95.93-7.33-191.05-13.72-287.71,1.66,93.03,1.59,199.63,31.26,287.71-1.66ZM3133.98,1356.24l-17.08,6.78,17.08.02v-6.8ZM4195.75,1445.25l-20.61,1.6-3.33,12.03,23.95-13.63ZM3336.05,1448.67c-35.23,4.35-73.33-1.5-106.13,13.6,35.33.62,72.98.26,106.13-13.6ZM4219.7,1462.3l-5.16-10.21-8.5-.02,5.16,10.21,8.5.02ZM3051.8,1479.39l-30.8-6.76c6.52,10.55,20.65,9.48,30.8,6.76ZM3744.62,1504.43c-6.35,2.92-37.18,27.63-49.24,31.45l3.09,21.25c66.68,85.99,172.31,50.46,185.77-55.4l-8.76-8.59c-52.03-.55-82.16-11.16-130.86,11.28ZM3973.12,1510.28c-12.75,3.1-22.78,26.09-23.95,37.59,15.57-3.11,17.56-26.57,23.95-37.59ZM4014.21,1982.65l-27.36-13.73.34,20.15c2.92.48,35.07,3.65,27.02-6.42ZM4041.6,1985.99c-.04-14.62-11.15-7.78-20.53-6.78l20.53,6.78Z"/>
      <path d="M1832.47,2177.72c-.08,4.85-19.18,11.27-20.5,10.21-1.13-12.77,12.54-7.12,20.5-10.21Z"/>
      <path d="M359.75,1537.58l-10.25-1.65c4.55-6.47,7.36-5.8,10.25,1.65Z"/>
      <path d="M4504.04,2201.65c-2.17-4.27,5.22-11.86,6.77-10.26,2.14,4.08-5,11.85-6.77,10.26Z"/>
      <rect x="4504.04" y="2109.25" width="3.34" height="6.8"/>
      <polygon points="4502.29 1766.95 4504 1768.66 4502.29 1770.37 4502.29 1766.95"/>
      <polygon points="1772.56 2194.8 1774.27 2196.51 1772.56 2198.22 1772.56 2194.8"/>
      <polygon points="3937.16 2348.83 3938.87 2350.54 3937.16 2352.25 3937.16 2348.83"/>
      <path d="M1644.06,206.24c-3.57,19.12,23.15,7.32,30.86,20.39-9.43,5.53-45.81-4.97-41.09-18.75l10.24-1.65Z"/>
      <polygon points="1654.38 192.44 1640.72 187.27 1645.9 178.79 1654.38 192.44"/>
      <rect x="1678.4" y="216.47" width="6.81" height="3.34"/>
      <path d="M1007.09,1626.59l24.01,5.12-36.27,15.45,11.98,33.91-33.94,20.85c-4.88-14.83,9.94-9.3,10.24-10.29,4.33-13.89-14.72-38.74-10.29-54.77l-33.04,22.32,15.11,20.46-9.51,32.54-17.1-8.54.05,25.64,16.1,6,2.84,58.94c32.31,18.67,53.2,41.66,93.43,39.11,60.63-3.84,158.24-83.57,163.84-144.05.57-6.18-17.76-56.84,17.56-41.34,4.46,1.95,10.17,26.56,28.14,16.36l-6.75,11.97,10.12,5.09,11.02-55.76c62.82-28.21,33.78,79.41,43.87,90,.81.85,9.11-4.92,11.26-2.99,28.15,25.17,20.96,73.82,44.63,94.26,7.35,6.34,21.1,6.82,27.54,11.87,24.47,19.16,24.97,46.45,75,32.98s37.5-85.42,58.08-94.2l20.74-.05,16.22,18.24c-12.6,32.52,10.79,59.24-4.32,87.95-12.07,22.95-33.64,18.99-48.91,36.7-10.83,12.56-9.62,30.62-24.4,40.65-16.32,11.06-62.55,14.19-80.7,24.54-10.85,6.19-32.06,36.79-42.11,44.41-60.44,45.87-205.51,71-263.83,13.82-14.05-13.78-34.74-71.72-32.6-90.79,1-8.88,19.21-44.68,17.29-46.22-59.42-18.51-124.53,17.91-182.38,9.41-27.79-4.09-78.77-41.85-83.92-70.13-11.73-64.41,79.87-128.87,77.97-192.56l8.51,17.07c15.53-31.94,60.18-46.2,96.01-65.26l14.97,9.5-6.48,31.78ZM979.65,1616.37c-.31-.37-6.14-1.44-6.85,1.73-2.29,10.17,12.22,4.63,6.85-1.73ZM1293.06,1650.58v3.42l1.71-1.71-1.71-1.71ZM933.44,1677.96v3.42l1.71-1.71-1.71-1.71ZM928.26,1698.47v-6.8h-3.34v6.8h3.34ZM1233.1,1743.01c-19.55-1.61-23.2,9.04-37.25,17.52l3.07,13.28,33.57-17.73.62-13.07ZM873.74,1780.43l-.28-20.32-23.89,61.61c22.13-11.47,16.95,13.18,25.4,20.79,8,7.21,55.62,21.33,67.08,11.78l-54.58-41.66,9.99-28.52-23.72-3.67ZM1332.41,1760.1l-6.25,4.5,13.1,29.7-6.85-34.21ZM1249.88,1791.34l-64.71,37.18,27.37,6.9,12.81-23.21,30.05,5.99-5.53-26.86ZM1092.7,1869.68l-10.25,1.65c4.55,6.47,7.36,5.8,10.25-1.65ZM1438.61,1920.93l-6.9-11.86-23.92-1.77,3.22,15.59,27.6-1.96ZM1157.76,1938.15l-27.53-8.91-10.08,49.9c2.49-24.91,28-22.38,37.62-41ZM1277.66,2009.95l3.33-8.59-13.57-5.09-3.39,8.57,13.63,5.11Z"/>
      <path d="M1840.3,1523.25c0,1.36,7.55-1.1,5.88,4.06l-13.49.25-20.5,49.61c-7.85,4.94-33.15-7.72-49.47-1.42-7.66,2.96,1.74,14.28-24.95,16.29-33.83,2.54-30.12-16.05-32.08-16.72-4.66-1.6-12.67,4.06-14.95,3.31-15.43-5.09-77.45-24.87-67.17-40.98-17.59,11.48-34.86,1.84-45.33-14.62-50.82-79.83,25.93-194.25,107.95-215.5,74.82-19.39,229.5,118.07,155.09,199.46-4.02,5.64-.98,11.56-.97,16.26ZM1674.93,1414.45h-6.81v3.34h6.81v-3.34ZM1743.43,1475.99l-6.77-27.33-6.19,14.84,12.96,12.49Z"/>
      <path d="M866.66,1571.81c2.36-10.93,33.68-8.33,34.16-1.66l-12.46,7.76-21.7-6.09Z"/>
      <path d="M930.54,1512.46c-4.83,6.04-58.31,46.63-62.09,45.7l-5.02-18.94-27.59-4.99,1.74,13.66-47.48-21.02-2.22-23.47-10.29-10.27-10.21,8.6,8.56,15.26c-14.6-12.24-22.88-8.37-41.58-28.57-25.19-27.21-34.57-70.41-39.23-106.73l45.02-85.17c80.56-29.81,193.89-20.54,214.71,79.36,9.28,44.52,4.82,100.12-24.31,136.57ZM800.07,1432.95l16.22,8.35,12.69-18.26-34.27,1.65,5.35,8.25ZM904.28,1455.5l-13.64,8.56,9.45,11.27-53.99,17.82c13.89,44.48,48.98-3.56,61.05-23.05l-2.87-14.6ZM793.01,1503.4v3.42l1.71-1.71-1.71-1.71Z"/>
      <rect x="387.17" y="1301.47" width="10.23" height="6.8"/>
      <path d="M1120.08,2136.66c6.12,4.01-16.32,4.44-10.23,0,.47-.34,9.62-.4,10.23,0Z"/>
      <path d="M205.62,1298.07c.71,1.11-.42,2.58-1.69,3.38-4.37,4.99-5.87,5.13-5.18-1.67-.34-3.09,6.68-2.01,6.87-1.71Z"/>
      <polygon points="873.48 1784.09 873.44 1802.83 865 1811.43 860.45 1800.28 873.48 1784.09"/>
    </g>
  </g>
</svg>