<?xml version="1.0" encoding="UTF-8"?>
<svg id="Layer_2" data-name="Layer 2" xmlns="http://www.w3.org/2000/svg" viewBox="0 0 2800.5 2246.64">
  <g id="Layer_1-2" data-name="Layer 1">
    <g>
      <path d="M1306.98,0c39.02,45.41,122.86,10.29,180.38,11.94,86.71,2.49,252,23.52,139.36,139.06l9.54-72.8c-27.26-29.61-64.54-21.6-100.94-27.36l-7.87,65.95-21.95,9.64-5.12,1.98,16.95-31.61-5.41-25.76c-27.34-22.08-42.73-.64-69.43,6.02l-5.51-13.82,17.51-3.48c-8.19-3.18-13.06-6.82-22.56-7.33-32.39-1.73-158.53,15.67-196.59,21.72-10.22,1.63-85.06,19.22-89.02,25.12l-8.08,51.71-19.59-34.73c-27.22-29.13-161.57,58.67-201.61,63.01l-1.77,31.36c-41.92-18.31-153.54,28.57-152.89,80.92-39.6-11.98-102.45,50.18-132.18,78.55-88.8,84.76-179.55,208.16-235.84,317.42-10.58,20.53-84.22,175.6-84.94,185.79-.4,5.71,15.71,15.1,11.5,32.01-19.12,29.63-50.78,51.29-46.85,95.68l163.19-196.98,22.5,22.34c-62.92,40.28-128.11,113.63-167.57,176.99-57.32,92.04-34.99,121.12-40.19,219.77-1.34,25.49-25.78,48.41-2.6,71.43,16.04,6.02,282.14-112.75,316.39-130.08,336.04-170.06,709.82-446.71,945.19-738.5,33.01-40.92,60.72-92.39,96.29-131.03,12.09-13.13,23.14-29.61,41.65-18.27l11.13-6.24c-5.63-31.98,25.16-102.19,66.39-80.38,12.99,6.87,12.79,25.91,21.3,34.87,10.3,10.83,50.74,36.92,51.09,45.51-13.17-4.54-94.85-21.47-103.66-14.06l-68.47,119.41,14.22-5.05c7.9-21.29,31.05-31.04,51.61-47l18.83,4.31.56,22.45c-39.8,29.71-68.47,69.62-104.29,106.37-14.85,15.24-45.18,33.46-63.02,52.9-7.34,8-55.13,70.27-55.03,74.97l8.54,5.05,139.02-78.9-10.47-24.48c-2.14-16.28,42.58-20.69,48.33,8,6.97,34.8-44.71,61.23-69.35,76.59-6.74,4.2-16.76-1.91-21.39-.14-8.17,3.12-1.54,15.4-8.19,19.32-52.59,30.97-112.96,49.71-158.61,91.2l2.25,38.3,118.17-32.3,11.7,20.45-7.24,38.52-14.01,5.27-8.45-13.84-44.35,8.53c-18.5,15.7,49.74,62.16,61.43,72.06l-5.15-63.22,7.11,1.63c25.79,23.28,20.29,56.98,39.15,83.8,30.74,43.72,276.12,136.84,339.68,166.19,109.5,50.57,225.19,112.59,334.78,160.55,53.25,23.3,109.67,44.38,168.07,49.86,18.01-13.67.98-36.94.64-48.84-.11-3.72,9.7-9.01,9.95-11.12.96-8.05-9.9-5.11-11.01-14.05-1.51-12.2,11.4-61.88,11.11-76.97-1.2-63.01-36.47-66.41-42.06-102.33-3.4-21.86,11.25-34.04,9.62-48.07-2.84-24.47-110.13-234.43-129.86-263.69-101.3-150.3-279.69-211.28-424.44-313.29-6.61-4.66-6.24-13.41-8.06-14.71-14.23-10.16-45.55-9.86-55.18-37.88l17.48-15.79c64.24,22.16,174.04,118.98,243.53,155.19,26.16,13.63,96.29,33.79,111.19,43.39,4.66,3,20.04,28.19,30.55,36.19,34.38,26.18,73.51,44.77,108.32,70.85,50.84,38.08,101.19,79.41,146.75,123.77l16.25-2.93c-15.08-31.67-12.84-98.56,31.89-53.86-9.89,14.84-8.55,22.96-6.31,39.42,13.96,102.71,118.34,176.99,171.59,260.6,50.07,78.62,153.82,310.99,147.64,400.59-4.74,68.73-62,11.63-59.02-6.76.96-5.93,11.8-8.25,12.35-17.19,3.13-50.45-34.1-149.97-54.71-198.11-36.53-85.28-86.92-179.25-151.59-245.41l-13.08,11.12c46.52,106.98,39.04,242.52,74.7,348.81,16.69,49.75,66.18,70.81,70.46,91.39,5.42,26.05-16.51,21.68-19.37,30.65-1.05,3.31,2.24,60.86,3.39,69.32,6.58,48.12,84.47,253.91,55.03,285.67l-30.8-7.82c-11.06-29.82-31.41-57.66-43.71-86.22-6.85-15.91-3.7-29.97-5.36-35.02-.69-2.09-36.8-16.34.16-23.15l13.88,21.38-10.44,10.36,28.07,31.72-38.6-151.23-75.93-1.35,18.66,29.71-18.33,12.59-54.5-10.92,3.53-6.93-103.2-13.61c-6.45,2.98-16.92,44.81-22.55,54.71-26.04,45.76-86.55,154.2-117.98,189.38-27.67,30.96-76.22,60.42-107.65,90.83-215.07,208.12-251.15,271.25-553.67,356.18-123.59,34.7-323.13,90.89-449.52,67.22-24.59-4.6-55.27-29.68-81.69-37.75-22.4-6.84-55.61-6.53-78.15-13.19-85.1-25.12-191.45-124.51-285.39-167.78-15.7-7.23-53.18-10.43-73.87-21.14-28.74-14.89-140.91-92.45-172.01-114.92-70.9-51.22-56.4-70.63-93.31-135.99-42.71-75.61-107.1-139.44-116.4-231.47l-45.9-10.27-17.83,28.12,14.32,29.87-79.12-27.77-15.41,12.42,3.04,43.29-41.96-15.69,35.02-28.04c-24.41-18.07-13.15-36.37-17.39-61.25l20.87-2.07,24.69,29.93,12.18-77.47-19.45-5.34-6.93,26.54c-31.95-11.82-45.96-11.39-75.88,6.16l-39.89-20.11v-3.51c6.47-31.13,28.43-15.78,46.54-21.96,40.09-13.68,33.5-109.69,40.46-144.86l-6.15-128.19,10.47,10.49,7.48-55.73,10.07-.46,3.36,86.48-24.44,32.93,17.61.04c6.42,12.51-10.37,17.53-10.5,19.27-.26,3.73,14.02,50.28,14.04,53.02.06,11.29-11.99,15.22-9,25.93,23.16,26.74,57.97,10.24,71.97-15.64l25.9,4.6,14.69-52.07-33.39-63.21-15.77,17.53c-16.39-26.32,15.13-27.38,17.64-31.5,19.19-31.5,37.18-88.77,43.37-125.24,7.03-41.41-10.5-79.54,31.72-112.42l-6.61-18.77,23.7-12.3-6.11-43.95c50.74,17.11,25.03-78.03,70.21-80.85l-10.53-6.98,84.3-189.62c-12.31.57-20.27,11.52-28.07,19.31-107.3,107.35-196.38,270.44-223.2,419.8l-19.22-5.41c21.32-26.39,3.1-19.98,4.36-30.78,2.55-21.75,14.46-41.88,9.64-65.76-22.84,15.35-16.41,42.62-22.97,63.07-8.63,26.9-30.48,53.17-19.19,80.89l-24.55,7.02c18.45-166.37,104.62-381.79,217.79-507.53,15.82-17.58,38.96-47.26,63.27-47.42l-3.78-26.61,138.97-131.48c138.01-82.29,304.96-200.11,448.06-268.57,81.79-39.13,187.33-53.77,270.49-96.64h84.32ZM607.79,340.72c-10.67,3.4-33.41,7.61-41.87,12.54-13.78,8.02-139.64,122.6-151.59,137.39-9.52,11.78-28.65,47.29-32.29,63.38l-34.64,9.45,1.4,22.08,13.03,2.96,73.53-77.78c9.98-11.68,50.62-36.4,59-44.63,38.59-37.91,75.64-85.9,113.42-125.38ZM1573.97,372.33c-9.11-8.11-38.2,28.65-35.09,31.56l13.43-.61,21.66-30.95ZM597.25,400.38l-5.25-10.43-5.18,5.18,10.43,5.25ZM1521.29,432.05c-10.19-1.19-12.24,9.98-17.47,15.81,6.04,3.1,19.22-13.99,17.47-15.81ZM321.47,572.5v3.51l1.76-1.76-1.76-1.76ZM316.2,593.58c-3.36-22.72-22.55-5.42-14.03,3.49,2.66,2.78,11.37-3.07,14.03-3.49,1.26,12.02-32.4,47.69-40.69,59.43-4.26,6.03-14.92,6.7-15.48,7.53-1.19,1.76,4.6,9.47,1.82,13.71-39.32,60.05-78.29,125.89-89.67,196.77,13.7,7.11,59.6-111.58,67.29-124.09,8.61-14,29.73-38.71,41.38-56.06,21.14-31.47,60.56-59,56.43-100.68-11.02-7.56-16.59,2.66-21.09,3.38ZM1384.27,639.24c-.95,1.1-14.08,4.2-17.5,8.85l-3.56,15.72,14.26-5.03c7.14-4.73,8.91-14.74,10.31-16.02,13.6-12.41,26.81-17.99,35.13-38.59-21.45-.66-28.21,22.96-38.64,35.08ZM2369.42,686.97c-22.31-19.24-48.2-34.78-63.35-61.44l-17.57,10.39c62.34,76.31,97.08,172.87,138.69,262.02,7.9,16.92,23.83,21.34,24.56,22.85,3.19,6.64-1.82,21.78,2.14,31.26,4.74,11.36,71.15,212.79,96.81,185.9-4.71-25.03-10.45-50.46-14.09-75.69-24.47-169.53-35.05-261.36-167.19-375.28ZM1611.19,974.45c-17.03-19.2-23.07-37.42-38.83-54.36-37.46-40.29-90.47-76.58-128.67-117.43-33.29,4.68-36.74-2.79-66.65-14.25-10.18,25.45-32.53,14.6-60.34,27.38-89.87,41.3-117.57,89.02-187.26,142.95-30.36,23.5-193.61,128.81-201.24,150.32l8.58,28.41c83.53,30.69,158.51,80.43,236.55,125.32l13.67,43.26-59.19,21.57c17.02-39.3-46.82-8.01-58.39-7.06-13.85,1.14-20.45-7.84-27.51-7.12-31.24,3.2-148.19,66.15-182.18,85.16-12.46,6.97-32.84,31.41-35.09,32.21-8.76,3.1-16.38-3.75-26.98.42-7.72,3.04-34.48,36.29-39.31,39.66-3.71,2.59-33.5,5.47-44.8,15.36-1.19,1.04,3.52,8.24,0,11.84-12.61,12.9-35.4,21.31-28.45,43.77l-21.03-14.01-33.36,21.36-12.4-24.88-18.63,13.33-19.52-17.78,66.27-62.25-21.08,3.43,7.05-12.16-19.09-8.48c-16.89,45.1-53.86,20.48-19.45-12.55,11.84-2.68,77.35-13.5,73.63-31.68l-10.76-3.9c-23.54,21.52-55.48,31.39-84.07,12.65l3.48,13.99c-99.45-2.64-35.87-68.89,21.07-71.99l-24.59,26.34,140.53-54.4c-101.47-36.9-196.51,5.83-256.36,89.62l4.93,6.75,51.17-31.39-10.68,38.49c-25.11-9.72-42.34,36.08-71.83,10.51l-1.83-27.92c-19.35-16.63-121.92,72.53-144.43,82.26-4.61,58.85,53.09,94.7,74.99,136.43,23.75,45.25,7.2,48.75,55.61,91.8,282.51,251.26,874.91,494.05,1243.5,358.52,263.21-96.78,567.04-306.8,685.74-568.36,3.98-8.77,18.14-39.04,17-46.17-10.44-28.44-44.4-17.99-60.72-23.68-49.33-17.21-67.92-35.77-104.41-57.19-11.91-6.99-54.33-18.23-61.7-26.2l-6.83-21.12-17.27,10.53c-21.67-19.75-59.61-11.11-68.87-40.46l10.55-15.81-31.64,12.63c-17.78-31.05-7.32-10.63-21.92-16.86-6.28-2.68-11.61-7.48-16.98-11.57l-3.24-19.31-11.57,9.84c-16.52-12.29-34.8-14.35-53.07-20.82-9.31-3.3-5.65-13.11-7.23-13.5-12.66-3.11-81.64,28.47-99.41,34.07-21.33,6.73-54.19,8.16-72.77,15.06-26.97,10.03-52.03,46.62-87.22,32.22l-16.43,11.59,328.64-26.59c38.79,57.65-52.25,43.7-83.24,47.88-7.42,1-17.7,10.49-29.7,11.71-21.1,2.15-173.13-.61-177.16,9.19,35.04,26.82,90.22,7.04,135.22,8.53,43.75,1.45,185.25,7.01,212.39,33.81,7.31,7.22,11.71,7.74,10.79,20.45l-19.59,23.26c-57.55-5.57-101.97-33.77-163.1-17.55l8.7,14.07c32,16.29,158.08,58.06,101.15,104.57-13.32,3.94-58.48-8.08-72.19-14.1-15.84-6.96-16.82-18.53-23.76-21.91-18.07-8.82-74.23-12.26-101.77-21.2-38.33-12.44-77.78-25.99-116.08-38.49-41.04-13.4-73.46-72.74-131.17-65.56-19.37-9.69-14.07-27.58-16.74-30.68-1.75-2.04-43.97-8.11-50.72-17.93-3.11-29.41,34.61-19.57,42.71-22.37,3.9-1.35,3.49-8.33,14.52-12.2,7.55-2.65,18.71,2.39,20.59,1.65,4.15-1.61,5.63-9.87,16.2-14.31,7.29-3.07,15.53,1.98,20.34-.29,15.85-7.48,50.82-40.81,69.19-50.37,51.89-27.02,106.04-48.55,159.27-72.64-6.05-25.19-29.59-28.33-38.34-35.36-44.88-36.07-62.68-59.81-89.9-107.11-1.31-2.28-28.55-5.21-8.8-25.99-24.59-2.89-21.4-7.8-36.55-24.87ZM1225.05,820.73c3.34-3.25,11.16-15.14,6.42-19.9l-47.44,38.58c9.05-.74,35.78-13.59,41.02-18.68ZM172.14,874.59l-21.04,42.09c20.34-2.94,16.45-27.52,21.04-42.09ZM131.75,906.17v3.51l1.76-1.76-1.76-1.76ZM2235.95,1255.89c57.81,16.27,109.38,28.67,170.79,24.6l4.74-19.14c-125.82-20.13-225.01-92.85-337.2-144.08-35.2-16.07-73.01-24.18-107.52-40.03-63.04-28.96-196.53-110.24-255.65-123.74-8.31-1.9-16.27-2.31-24.71-1.65l2.22,10.8c56.3,35.4,102.21,86.85,159.78,120.53,7.28,4.26,67.92,36.45,71.93,36.95,31.84,3.95,67.92-12.85,101.01-6.13l23.47,67.83c41.02,20.04,82.57,38.46,125.66,53.77,10.61,3.77,52.34,16.6,65.48,20.3ZM886.94,1079.81c40.61-21.02,84.54-70.74,124.83-94.61l-15.57-5.42c-19.78-.07-163.05,91.53-156.46,103.69,18.23,13.59,32.4,3.99,47.2-3.67ZM1757.98,1094.61c-3.57-5.34-6.79-10.78-10.11-16.3l-15.75-3.53,11.6,23.47,23.51,4.57c-.09-4.92-7.38-5.41-9.25-8.21ZM1830.44,1134.54l-59.7-28.13c14.66,13.19,31.81,45.52,53.77,38.02l5.92-9.89ZM1798.83,1145.05h-6.98v3.42h6.98v-3.42ZM2448.88,1145.02l8.68,77.18,28.21,17.53,5.08-8.33c-1.54-8.29-33.27-90.2-41.96-86.38ZM2515.52,1162.58c-10.76-1.83-6.78,4.67-6.09,11.37,3.01,29.05,25.54,95.38,62.33,93.98l-56.24-105.34ZM702.68,1197.65c8.98-1.99,48.69-15.38,45.66-26.23-19.07-15.35-36.23,15.09-45.66,26.23ZM653.47,1183.62c6.14-8.09-6.71-7.83-6.98-1.71-.14,3.09,6.77,2,6.98,1.71ZM941.58,1236.28c-4.68-44.36-181.36-60.72-175.58-29.81l175.58,29.81ZM2056.5,1252.83c-15.71-10.93-92.89-45.55-109.96-46.6l-10.58,3.75,111.18,71.47,9.94-6.29-5.31-15.96,14.08-1.85c1.11-6.15-5.83-2.08-9.35-4.52ZM962.65,1218.83l-21.06-3.53,15.92,10.45,5.14-6.92ZM516.46,1229.34c-36.71-6.66-37.41,15.45-52.93,22.56-69.67,31.92-139.08,64.07-214.19,80.9l11.17,75.15c6.59,3.56,24.41-4.72,30.91-8.49,50.78-29.42,134.42-92.59,182.64-130.01,15.09-11.71,30.43-25.08,42.41-40.1ZM541.08,1264.4c22.75-.85,39.56-16.78,56.11-29.83-7.83-8.13-48.65,13.39-51.54,16.86l-4.57,12.97ZM757.51,1258.88c-15.4-4.91-30.82-6.46-46.08-11.67l-75.46,34.77c50.27-9.73,100.73-4.04,151.02-10.59l-3.44-5.28c-11.18,1.88-19.79-5.24-26.04-7.24ZM2388.01,1410.89c41.34-61-49.76-58.87-93.63-74.61-30.02-10.77-209.62-90.68-225.02-78.87-6.1,18.51,12.21,13.98,15.78,20.84,1.51,2.91-2.61,11.12-.25,14.24,19.73,26.07,85.2,47.06,117.02,62.28,6.78,3.24,15.9,16.62,27.67,21.71,25.69,11.11,139.36,54.68,158.43,34.41ZM530.5,1274.98c-18.94.67-30.2,15.93-38.6,31.57,3.59,3.5,44.04-26.65,38.6-31.57ZM765.93,1331.14l-1.69-6.93-26.43,10.41,28.12-3.49ZM460.23,1327.67l-31.58,22.77,17.5,12.33,14.08-35.1ZM725.51,1334.67v3.51l1.76-1.76-1.76-1.76ZM2578.79,1397.87c-15.69-50.7-59.27-78.1-112.39-56.12,27.34,35.88,75.53,34.94,112.39,56.12ZM189.74,1461.13l38.56-30.2-26.4-78.92-19.8,20.68-20.51.61,6.98,26.59,17.58-5.49,3.58,66.74ZM723.73,1352.25l-59.69,28.03,53.76-14.68,5.93-13.35ZM140.49,1362.75v-6.98h-3.42v6.98h3.42ZM744.84,1401.36c9.34,2.52,54.06-16.75,52.68-26.24l-10.64-3.8c-14.25,9.7-35.95,11.71-42.04,30.03ZM135.83,1384.34c-4.73,1.06-13.72,14-12.55,18.44,8.42,31.89,40.68-24.75,12.55-18.44ZM2522.58,1468.11l-24.55-50.92-66.86-28.32-12.49,44.23,103.9,35.02ZM683.87,1394.74l-9.21,8.42,15.69,5.23,5.22-5.23-11.69-8.42ZM344.3,1404.86c-3.52-10.96-14.08-3.49-21.05-3.41,2.09,9.09,15.13,4.83,21.05,3.41ZM737.81,1404.96l-45.65,8.71,8.89,12.47,36.76-21.19ZM172.13,1408.46l-10.42,5.23,3.45,8.76,10.42-5.23-3.45-8.76ZM1832.23,1422.48v3.51l1.76-1.76-1.76-1.76ZM217.83,1471.69c-4.9-2.76-15.43,9.14-14.05,10.45,4.77,2.8,15.44-9.09,14.05-10.45ZM563.54,1874.1c-41.53-27.06-81.95-57.36-121.05-87.91l-10.29,3.24c25.28,51.64,76.27,60.06,120.12,89.63,33.28,22.44,108.86,88.48,145.98,97.46,6.68,1.61,21.94,3.19,25.41-4.43-53.03-32.64-108-63.99-160.17-97.98ZM535.85,1829.93l-5.25,5.25,8.63,5.25,5.25-5.25-8.63-5.25ZM843.21,2037.08c-2.69-7.2-9.88-11.75-17.57-10.45,2.69,7.2,9.88,11.75,17.57,10.45ZM1408.84,2167.13c-76.69-11.5-155.73-11.38-231.3-30.46-43.51-10.99-89.66-23.06-133.56-35.07-58.4-15.98-113.92-39.44-172.64-53.89,38.15,39.37,68.36,70.24,122.17,86.78,30.43,9.35,66.13,9.26,96.28,19.65,20.27,6.99,52.37,32.87,72.32,36.91,34.85,7.05,171.21-2.56,208.9-10.86,11.9-2.62,26.68-8.11,37.82-13.06Z"/>
      <path d="M1387.78,642.75l-3.51-3.51,3.51,3.51Z"/>
      <polygon points="333.76 1236.38 274.22 1262.94 264.34 1255.16 277.34 1234.29 333.76 1236.38"/>
      <rect x="2153.72" y="460.15" width="6.98" height="3.42"/>
      <rect x="1429.97" y="77.31" width="6.98" height="3.42"/>
      <polygon points="158.06 1169.59 140.82 1125.73 152.85 1102.88 158.06 1169.59"/>
      <polygon points="179.19 1278.43 168.93 1262.17 177.45 1250.4 173.85 1299.53 164.9 1290.75 179.19 1278.43"/>
      <path d="M151.05,1071.27c4.22,7.73-13.6,25.25-17.52,21.03-4.22-7.73,13.6-25.25,17.52-21.03Z"/>
      <polygon points="108.89 1078.29 107.18 1092.3 98.46 1083.54 108.89 1078.29"/>
      <polygon points="112.41 1215.23 105.4 1215.21 108.97 1204.75 112.41 1215.23"/>
      <path d="M1018.33,1461.76c-.21,22.98-15.76,32.59-34.56,39.77l10.48,6.94-51.83,60.62c-13.44,25.87,57.61,75.08,75.1,74.69,10.65-.23,17.25-12.91,31.92-13.07,9.57-.1,11.46,9.21,22.11,8.12,7.25-.74,22.91-14.78,32.22-17.34,29.67-8.15,61.73-12.19,89.66-26.27,26.13-13.17,79.3-83.63,88.71-51.43l-6.51,66.34c3.58,23.2,35.64,48.74,54.02,61.88,8.45,6.04,29.54,6.23,36.07,11.38,8.64,6.82,17.9,42.36,45.75,47.48,111.29-33.73,238.3-41.85,304.84-150.33,1.11,43.65-47.15,112.6-83.67,134.12-22.22,13.09-158.76,52.67-187.85,58.07-25.6,4.75-45.78,2.86-71.1,2.66-12.34,52.77-49.99,73.82-75.52,114.3-2.53,4.01,3.63,13.16-1.48,21.95-5.62,9.65-45.96,28.34-60,39.4-9.59,7.56-28.53,36.09-30.68,37.19-9.96,5.06-108.83,2.79-125.23-.71-95.53-20.36-95.59-108.31-82.1-190.11,4.25-25.79,12.14-71.36,45.23-67.92l-.48-22.54-15.3,3.28c-9.32-34.29-37.97-23.2-60.34-34.71-16.15-8.31-61.84-61.92-64.63-79.35-1.24-14.34,3.16-41.66,8.41-54.42,5.99-14.55,92.39-111.34,106.76-79.99ZM1233.14,1622.66l-13.53,3.97,4.84,17.08,11.95-5.74-3.27-15.31ZM1170.02,1706.95l17.58-26.56-12.38-22.62-8.74.04,3.54,49.14ZM1110.2,1682.41c-24.89.83-31.84,26.07-38.58,45.64,17.18-10.28,34.94-24.61,38.58-45.64ZM1351.96,1762.49l-87.1-76.58c-3.35,16.75,26.29,30.42,28.21,34.01,1.49,2.79-1.84,13.58.64,19.64,12.09,29.54,11.91,34.93,13.31,69.27l44.95-46.33ZM1226.15,1721.04l-14.01,28.06,12.19-7.08,1.81-20.97ZM1261.28,1773.73l-29.78,24.42c1.95,33.74-30.76,47.94-36.93,80.9,31.81-22.99,73.74-62.34,66.71-105.32ZM1106.48,1931.51l-9.22-20.45-32.61,11.88,15.99,16,25.84-7.43Z"/>
      <path d="M1714.81,1528.1c.4-1.32,16.31,7.95,7.68-19.17l11.3-9.16-6.97,56.18-19.21-1.73c6.76-7.65,4.81-18.2,7.2-26.13Z"/>
      <polygon points="962.64 1120.44 962.64 1130.93 945.19 1125.69 962.64 1120.44"/>
      <path d="M1025.91,1517.35c-.22,4.82-16.11,14.81-17.52,14l2.04-10.86,15.48-3.15Z"/>
      <path d="M1096.17,1443.59l-14.01,10.49c-.88-9.31,6.2-11.86,14.01-10.49Z"/>
      <path d="M997.8,1137.94c-4.38,2.23-12.18-5.36-10.54-6.94,4.19-2.19,12.16,5.12,10.54,6.94Z"/>
      <polygon points="996.04 1555.94 997.8 1557.7 996.04 1559.46 996.04 1555.94"/>
      <path d="M1725.01,263.44l7.09,17.5c-5.09,5.53-25.21-19.31-7.09-17.5Z"/>
      <rect x="2153.72" y="1317.15" width="6.98" height="3.42"/>
    </g>
  </g>
</svg>