<?xml version="1.0" encoding="UTF-8"?>
<svg id="Layer_2" data-name="Layer 2" xmlns="http://www.w3.org/2000/svg" viewBox="0 0 3047.68 2647.84">
  <g id="Layer_1-2" data-name="Layer 1">
    <g>
      <path d="M1188.08,1265.06c1.27-1.17,2.4-2.5,3.68-3.68l-3.68,3.68Z"/>
      <path d="M0,1482.04c11.8-41.05,9.72-76.46,21.97-119.62,6.43-22.65,70.85-172.16,82.59-182.22,12.84-11.01,25.12-4.8,32.65-10.52,25.03-18.99,60.04-62.1,86.51-77.3,63.51-36.46,149.67-35.03,185.46-107.93,30.1-61.32,53.53-152.58,82.04-215.68,19.3-42.74,76.56-94.98,67.92-150.96.75-1.15,10.06,3.93,13.66.98,36.76-30.15,76.42-112.59,111.95-153.02,27.63-31.43,60-50.97,83.66-81.96l-5.2-7.31c-66.88,18.25-111.61,77.74-161.38,123.55l-51.98,95.68c-32.21,5.8,27.67-94.08,31.95-100.49,67.73-101.65,205.94-183.73,321.48-215.51l9.2-20.28-17.91-11.16,24.01-30.49,15.7-.81,14.78,40.42,14.64-14.74c-3,20.54,13.54,25.7,24.85,9.3l-6.38-20.29,21.99,14.67-22.02-33.06,99.27,10.98-14.67-10.96,29.36-3.73-7.32-14.66,187.55-18.44,3.77-18.34c7.9,7.52,37.24,13.33,46.79,13.75,286.75,12.57,423.59-91.2,722.44,31.65,12.99,5.34,31.98.28,46.98,8.19,17.41,9.17,17.52,34.7,26.17,43.71,15.44,16.09,114.11,61.48,147.15,88.24,53.28,43.14,227.61,208.09,256.73,261.85,14.59,26.94,9.42,42.02,15.5,62.07.38,1.25,12.49-3.5,16.83,16.29,2.79,12.71-2.03,30.16,2.44,48.7,14.7,60.84,47.61,46.89,60.34,83.07,21.59,61.33-20.62,171.31,23.13,208.58,19.91,16.96,32.99,3.69,38.39,6.1,4.57,2.04,15.81,16.41,29.12,22.01,57.82,24.36,123.65,36.96,169.84,83.9l-227.95-500.21c-114.86-218.92-239.55-205.01-416-334.29-70.99-52.01-150.74-123.66-223.03-172.11-15.04-10.08-82.5-37.75-91.55-54.14l9.49-27.77,410.57,299.32c429.25,120.78,417.71,670.26,687.75,960.14-3.62,68.52,31.29,169.46,8.87,233.72-3.6,10.32-93.29,109.97-108.93,126.46-17.55,18.5-61.02,42.85-69.49,66.76-.48,1.34,9.28.77,6.94,6.54-12.07,29.86-22.09,31.66-47.33,48.45,34.49,20.15,60.93,61.61-.32,59.05,1.79-19.31-38.45-34.41-53.17-35.37-13.3-.87-151.56,28.12-164.67,34.1-12.67,5.78-8.33,22.82-23,25.03l-54.45-29.78-6.05,29.71,9.1-3.74-14.94,29.95-20.95,2.63c-46.14-17.12,40.78-219.29-65.21-201.67,11.88,23.33-12.27,54.46-13.56,72.13-10.64,145.67,68.72,563.38,8.22,681.67-8.59,16.8-32.21,20.14-44.52,33.35l-49.34-16.83-22.36-51.29,29.57-.06,31.24,49.57c12.05-10.61,22.68-22.44,28.47-37.75,36.47-96.27,5.88-402.03-11.6-505.15-1.14-6.74,1.94-42.44-.29-45.46l-18.15,38.81-14.95-.31,27.67-56.97-23.9-10.98c-25.33,39.59-54.76,76.31-82.91,113.94-4.54,6.07-15.71,2.89-16.51,3.76-1.45,1.58,3.79,13.27,1.33,17.47-21.13,36.02-30.92,76.5-52.76,109.43-21.67,32.67-68.49,68.86-93.85,101.08-4.37-19.72,58.6-63.86,27.63-64.31l56.84-71.89-3.48-10.85-110.42,99.25,11.06-32.99c-19.61,21.78-20.64,41.44-42.05,61.15-6.81,6.27-13.67.15-14.89,1.29-.83.78,1.77,7.9-2.24,11.41-5.68,4.98-15.13,12.78-21.54,18.08-26.8,22.15-62.98,36.43-84.86,66.07l9.26-21.98c-27.54-4.2-23.06,25.05-26.3,28.81-2,2.32-15.6,2.17-17.76,4.57-.93,1.03,4.12,8.56.27,12.65-17.29,18.36-81.78,60.56-102.36,67.27-10.01,3.26-20.76-4.18-29.48-.71-6.14,2.44-4.29,13.74-14.93,18.64-61.05,28.13-137.37,69.02-203.38,65.23l-17.98,13.19c50.01,17.48,117.46-4.47,167.91-17.87,114.95-30.52,245.79-77.17,328.8-164.05,18.67-19.55,36.92-55.08,56.88-75.54,11.96-1.48-3.41,23.83-4.2,25.25-12.42,22.22-39.83,45.11-52.84,68.53l25.69-16.56c2.49,2.65-38.17,54.95-42.34,58.76-123.7,113.12-489.79,180.7-654.56,171.11-55.61-3.24-102.87-25.69-152.03-41.23-84.06-26.56-155.2-56.58-234.6-89.37-1.6-.66-11.39,5.89-20.01,2.23-16.21-6.87-39.22-28.36-62.41-31.72l18.33.02c-15.11-23.62-24.92-5.22-39.47-10.11-25.26-8.49-124.57-81.28-144.44-103.09l-176.6-247.14-14.62,10.98-9.05-110.46c-16.18-29.6-38.47-12.15-60.87-3.48-12.8,78.87,4.49,161.78,14.85,241-23.56,21.13,1.21,11.29,3.17,37.03,6.74,88.82,9.13,176.55,15.25,263.61.23,3.28,7.02,1.64,7.22,4.39.1,1.41-11.42,13.95-10.51,26.2,4.98,66.88,27.81,103.56,35.68,166.32-37.06,10.67-49.79-25.9-67.57-50.77-10.94-15.3-42.61-23.87-29.3-62.54l35.03-49.73-41.39-227.25-17.55-2.62,16.77-10.76-16.9-237.51c-25.54-12.58-13.78,257.85-17.18,279.09,23.93,16.66,4.18,14.61,6.28,39.04l14.66-7.31c-11.78,17.61-18.92,63.16,3.68,75.41l-12.71,12.33c-.6,42.28,33.94,51.87,42.15,87.13l-25.54,33.37,11.86,70.29-25.93,3.74c-18.83-17.79-45.11-288.65-47.46-332.97-3.91-73.5-4.16-153.75-.63-227.16.84-17.52,19.5-24.19-.96-47.53l18.76-35.01-18.34,7.31-2.22-25.39c-163.08,47.94-288.62-117.17-321.11-260.69L0,1489.4v-7.36ZM1953.13,84.61h-7.31v3.58h7.31v-3.58ZM1794.44,184.47c-7.38-2.94-20.37.68-28.85-.59,10.79,27.55,44.74,26.79,68.51,36.61l16.03-5.42-10.75-25.82-25.98-1.68,3.66,10.96c-21.17,7.59-21.22-13.5-22.61-14.05ZM1934.73,209.61l-60.56.03-12.83-20.42-11.09,3.84c24.39,12.03-1.37,8.83,4.29,26.97l70.17,7.09,10.02-17.5ZM1263.48,213.28v3.68l1.84-1.84-1.84-1.84ZM1169.66,220.68c-.66-.43-10.49-.37-10.99,0-6.53,4.77,17.56,4.31,10.99,0ZM1493.37,231.69c-71.78-26.68-151.96,7.27-220.67,31.21,3.24,9.17,109.03,7.74,118.7,4.4,16.44-5.69,8.39-16.32,19.94-20.21,18.3-6.16,72.75,16.75,82.03-15.4ZM1524.92,225.93c-9.33-3.39-17.56-6.84-27.85-5.25l13.04,25.94,34.73-3.94.06-11c-11.62,5.24-17.1-4.7-19.98-5.75ZM1563.23,228.01c-.33-.4-6.59-1.54-7.36,1.86-2.46,10.93,13.12,4.97,7.36-1.86ZM1820.74,228.03c14.59,19.21,45.35,32.72,66.11,12.83l-66.11-12.83ZM1581.62,231.69c-.33-.4-6.59-1.54-7.36,1.86-2.46,10.93,13.12,4.97,7.36-1.86ZM2019.34,242.64l-5.37-9.73-13.01,2.48,3.79,10.99,14.58-3.74ZM1627.63,235.34v3.68l1.84-1.84-1.84-1.84ZM1024.39,239.02v3.68l1.84-1.84-1.84-1.84ZM928.76,246.38v3.68l1.84-1.84-1.84-1.84ZM1945.79,268.4l-10.86-12.59-14.89,1.65,6.25,11.09,19.49-.16ZM2052.45,268.39c-1.03-12.3-27.6-2.21-25.69,7.41l25.69-7.41ZM2023.01,268.49h-7.31v3.58h7.31v-3.58ZM2078.2,283.1l-9.18-10.89-12.87,14.58,22.06-3.69ZM1015.17,275.82l-30.53,10.95-2.53,11.07c15.03-1.18,32.85-3.26,33.05-22.02ZM2127.25,307.58c-5.22-2.87-41.25-28-45.34-24.41,12.89,29.22,46.59,35.66,75.36,40.45-2.76-12.47-21.17-11.17-30.02-16.05ZM932.44,297.86v3.68l1.84-1.84-1.84-1.84ZM1817.03,301.56l-10.99,1.79,10.99,5.52v-7.31ZM1522.77,312.6c-55.42-2.85-128.7-13.74-178.39,14.67l-7.27-10.97-5.57,10.96c40.81-.2,81.9,7.28,123.11,3.61,18-1.6,55.59-3.42,68.12-18.27ZM1313.16,316.27l-21.55.55-4.2,17.79,25.68-7.44.07-10.9ZM888.3,319.93v3.68l1.84-1.84-1.84-1.84ZM1272.64,331.04c-6.09-15.16-88.14-5.52-100.17-.11-6.19,2.78-38.15,44.05-58.04,42.23l9.69,19.18c16.65-5.32,157.39-39.21,148.52-61.3ZM2107.09,449.1c-31.48-3.99-95.2-16.58-123.49-29.06-20.37-8.98-42.63-41.55-59.66-46.97-57.66-18.33-147.33-21.16-207.96-46.15-158.11,44.74-311.72,44.95-473.17,72.37-16.41,2.79-23.03,17.08-43.72,5.26l3.72,7.26c-64.14,24.47-149.83,20.72-183.98,91.97l-11.05-5.56-3.64,23.96-14.65-3.67c-.36,3.8,1.42,11.49-.87,13.86-84.59,87.63-154.1,186.79-234.65,271.07-9.4,9.83-80.59,78.77-86.44,79.09l-5.37-5.37c41.74-46.06,84.11-92.32,124.92-139.91,41-47.82,107.5-116.46,143.26-164.09,1.17-1.56-3.9-9.16.56-15.38,13.27-18.51,43.35-36.87,40.19-65-48.53-5.6-43.47,19.33-68.02,47.86l1.76-22.13-20.14,11.08-5.52-11.05c-3.59,28.2-21.11,14.33-40.75,27.47-27.94,18.68-103.92,139.17-126.34,175.09-12.51,20.04-11.77,60.65-42.57,64.11l10.93,7.21c-12.97,12.88-99.91,169.98-82.6,178.49,28.28,1.74,52.37-16.91,74.82-31.79,143.95-95.35,269.09-224.1,416.44-315.47,26.2-16.25,166.97-98.94,186.17-104.36,8-2.26,15.49-6.46,24.28-3.97,28.22,35.65-17.08,27.99-33.05,35.62-37.52,17.93-79.4,46.13-111.8,64.77-46.28,26.61-80.27,49.41-123.42,78.85-6.46,4.4-39.76,14.15-41.56,15.45-2.83,2.03-38.41,44.99-44.28,49.44-51.54,39-100.25,78-151.1,117.67-4.07,3.18-13.15-3.19-14.52-1.91-.87.82,2.11,12.21-3.64,16.67-15.16,11.78-108.86,70.75-113.6,79.44l2.93,45.28c-31.8,12.45-50.74-7.41-75.42,24.16,25.72,85.19,12.15,174.14,13.12,261.07-21.85-5.61-11.8,34.71-9.23,47.89,9.76,10.56,3.16-8.83,7.4-7.4,11.21,3.79,5.03,31.91-1.77,40.43l146.76-75.71c7.34-43.97,37.78-95.95,39.54-139.87,1.26-31.4-21.35-50.07-16.62-81.75l16.81-1.68,21.21,21.38,53.38-23.91c-15.47,24.07-7.41,42.01,5.6,66.14l23.8-47.77,5.37,55.38-31.03,3.46,9.56,62.34c33.43-4.79,37.15-34.68,51.08-58.57l7.42,22.04c17.18,8.42,261.81-140.99,298.61-160.98,108.2-58.76,183.93-71.93,275.73-163.93,3.74-3.75,3.82-17.28,9.83-23.33,25.76-25.95,201.03-202.49,215.72-205.03l18.36,7.08c-22.01,9.75-30.41,38.42-40.29,50.59-39.91,49.19-99.41,88.73-139.81,138.86-1.17,6.31,9.33,4.1,12.05,2.87,39.54-17.95,158.17-140.51,177.54-179.36,2.18-4.37-3.38-13.57-2.01-14.78,31.11,5.29,47.31-71.22,63.81-94.06,3.94-5.46,14.22-8.67,16.1-20.1l28.87,3.54c-52.57,104.9-121.76,206.14-211.71,285.29l41.62,9.47,9.31,19.35-80.45,55.75c29.61,28.3,56.05,67.19,84.41,95.85,25.29,25.55,179.67,173.49,199.06,183.42,10.6,5.43,30.09.5,34.95,5.29,6.43,6.34,4.36,24.97,16.75,42.31,11.95,16.72,200.92,156.77,215.74,159.66,22,2.66,57.97-41.43,71.55-59.06,35.25-45.8,68.14-112.78,82.46-168.49l19.62-1.65,10.49,15.75-8.58,89.1c20.02-8.58,42.05-86.78,70.2-66.46l6.18,32.45c-72.42,68.77-99.66,144.7-115.13,241.89l115.45,75.16,50.08-45.86c-6.69-88.55,13.01-192.62,3.69-279.28-2.84-26.44-22.8-101.25-30.75-127.06-3.58-11.63-16.5-12.51-19.25-21.78-5.46-18.38,12.01-18.1,13.4-27.64,4-27.35-87.41-330.3-106.87-356.76-37.81-51.42-141.79-89.96-179.72-140.26-9.96-13.21-41.24-86.21-52.45-92.92ZM1162.33,331c-.21-.32-7.74-1.48-7.38,1.84-.74,7.3.88,7.15,5.56,1.79,1.36-.86,2.58-2.44,1.81-3.63ZM1318.65,334.64v3.68l1.84-1.84-1.84-1.84ZM1110.83,349.39c-46.84,4.4-89.86,33.37-135.01,52.54-2.34.99-4.8,11.66-15.62,15.65-9.19,3.38-102.6,15.57-92.12,27.35l14.59,1.85-27.54,27.57-14.63-22.01-1.88,14.67c-44.19-6.7-59.59,40.24-84.32,64.52-32.56,31.99-69.07,40.55-81.18,99.08l11.05,3.79c7.22-21.56,44.31-27.97,54.42-35.73,1.8-1.38-.12-13.38,5.87-18,34.11-26.3,76.57-45.84,97.84-86.07l27.58,9.19c12.75-24.72,42.96-34.31,64.3-46.37,5.16-2.92,14.55,2.7,16.51,2.04,8.28-2.8,1.02-13.67,2.02-14.17,56.57-27.93,122.93-37.43,158.11-95.89ZM1303.98,349.44l-5.47,5.47,1.7,1.7,3.77-3.59v-3.59ZM790.82,360.43l-18.37-.02v7.31s18.37-7.28,18.37-7.28ZM1221.18,386.08l60.62-7.38,9.24-9.06c-1.69-7.57-67.63-3.41-69.86,16.44ZM2297.48,431.73c-27.8-26.74-77.63-57.42-116.28-63.95l145.37,110.22,5.4-5.4c-13.07-12.87-21.1-27.99-34.49-40.88ZM1096.09,386.15c-.33-.4-6.59-1.54-7.36,1.86-2.46,10.93,13.12,4.97,7.36-1.86ZM1127.38,404.51v3.68l1.84-1.84-1.84-1.84ZM1103.47,419.18c1.2-1.43-2.16-3.95-3.68-5.49-8.67-5.73-2.26,12.57,3.68,5.49ZM1074.03,419.24l-11.01,7.29,11.01.02v-7.31ZM1024.39,433.93v3.68l1.84-1.84-1.84-1.84ZM1011.49,452.31l-10.95-14.68-3.69,14.68h14.63ZM969.22,470.71v3.68l1.84-1.84-1.84-1.84ZM994.97,470.71v3.68l1.84-1.84-1.84-1.84ZM985.73,489.07v-7.31h-3.59v7.31h3.59ZM2217.96,525.85c4.98-11.1-24.55-37.86-29.38-33.05l17.2,28.55,12.18,4.51ZM2449.76,566.33c-2.77,21.31,61.6,131.22,75.29,128.69l4-11.16c-14.89-47.13-42.62-84.63-79.29-117.53ZM739.31,614.16c-11.15-11.26-50.15,45.09-55,49.77-7.81,7.54-22.13,9.62-31.55,19.91-3.76,4.11-36.34,47.18-38.18,49.97-34.36,52.07-48.18,100.32-44.43,163.47l51.42-132.37-3.58,36.77,38.59-84.55-5.49,47.78,88.21-150.75ZM768.75,621.53c-.21-.32-7.74-1.48-7.38,1.84-.74,7.3.88,7.15,5.56,1.79,1.36-.86,2.58-2.44,1.81-3.63ZM827.56,709.73v-7.31h-3.59v7.31h3.59ZM606.94,827.41l9.17-3.66,1.8-14.71-10.96,18.36ZM2582.07,886.24c9.17-22.39-4.31-47.14-25.64-55.13l25.64,55.13ZM632.61,864.19c.43-.66.37-10.49,0-10.99-4.77-6.53-4.31,17.55,0,10.99ZM616.11,882.6v3.68l1.84-1.84-1.84-1.84ZM1063.01,1371.71c-3.74,3.89-12.51,10.03-13.26,14.35l3.92,10.75c81.8-9.68,162.03-57.2,226.07-108.04,52.5-41.67,113.02-109.64,153.58-161.05,8.97-11.37,31.39-62.76,40.48-64.56l15.46,16.1-10.65,64.42-31.19-22.09,22.1,44.14,9.18-14.69,11.16,9.24c-23.7,18.97-44.24,27.36-40.61,64.3l33.05-35.21,14.73,5.78c-11.04-23.22,12.21-15.34,20.42-25.72,1.89-2.39,12.8-51.43,16.68-58.55l12.67,3.31c15.52,24.82-69.65,103.96-68.13,126.99.3,4.49,14.85-2.99,10.97,9.15-31.17-13.2-27.36,16.1-38.42,25.92-41.56,36.87-87.13,72.24-114.22,117.25-3.64,6.05-9.2,43.42-17.04,47.79-2.9,1.62-13.07-5.31-15.68-3.24-5.95,4.71-4.91,12.16-7.15,13.48-46.35,27.43-45.97,3.02-52.02,4.77-3.8,1.09-5.34,14.84-30.63,17.64l-55.84-6.58c10.41,38.44-39.59,11.3-36.72,38.86l-97.47,20.15-16.61-11.2,3.65,14.64c-15.66,11.74-46.61-2.45-49.71-2.31-8.66.38-8.2,10.26-14.59,10.03-26.36-.98-45.3-15.68-71.76-7.66l-5.44-14.65-9.28,5.41,14.71,20.22c-36.28-4.38-25.22,9.75-27.22,11.19-17.08,12.28-47.05,18.99-53.99,23.73-2.08,1.42-13.44,32.02-33.6,32.77l-160.1,95.13c2.3,30.9-25.39,96.97-22.84,122.4.46,4.57,34.7,52.68,7.17,60.49v-18.39s-21.86.29-21.86.29l-3.3,30.11c25.56,19.52,11.3,49.81,47.25,46.89-12.11,37.12,60.16,46.76,29.59,82.77l69.88,73.85c-39.63,52.11,78.73,133.68,117.72,153.88,63.03,32.65,125.94,32.5,187.4,51.68,47.82,14.92,89.95,53.48,139.65,73.67,342.59,139.19,638.8-28.4,895.65-248.42,44.74-38.33,171.62-151.17,196.82-196.72,27.37-49.48,24.23-108.51,53.37-156.25l22.1,3.72,1.8,51.47-18.29-7.33-11.05,44.11c62.62-50.37,100.57-112.35,94.16-195.09-28.42-19.97-62.55-29.65-91.7-48.29-24.67-15.78-119.99-96.38-132.21-99.49-26.64-6.78-58.66,6.85-87.48,2.88-11.16-1.54-127.66-59.97-137.7-68.28-77.11-63.79-66.25-159.71-108.5-226.18-22.84-35.95-78.62-75.02-108.72-108.28l-92.97-116.91,6.62-17.65,13.11,1.82c8.08,24.46,42.77,33.36,52.16,45.31,3.47,4.41,13.7,36.72,25.21,50.21,7.37,8.63,62.83,60.46,71.49,53.74l3.55-35.69-203.22-199.22c-23.75-7.63-67.76,49.58-84.93,62.46-61.49,46.15-101.73,76.92-158.47,130.28-8.36,7.86-9,23.95-10.02,24.91-2.47,2.32-14.76.13-18.92,4.05-44.5,42.05-86.24,87.32-131.31,128.94l-11.06-9.22,7.38,12.89c-15.9,14.68-21.11,6.4-22.04,7.3-1.07,1.04-.47,18.12-11,27.69-25.63,23.31-69.2,47.92-92.03,71.66l.02-9.22-11.04-1.79,11.01,11.01ZM2582.11,1022.32c2.94-41.28-6.63-82.03-33.03-113.98,2.21,38.54-1.02,86.9,33.03,113.98ZM451.29,977.06l10.34-53.92-16.57,12.88c19.98,20.65-3.46,21.9-3.62,45.87l9.85-4.83ZM1035.06,1255.52c127.5-73.09,252.29-155.05,347.94-268.04-11.46-12.12-26.51,11.83-40.41,18.34-145.2,68-270.31,137.62-404.8,216.68-16.38,9.63-34.73,13.72-49.22,27.94l-5.5,16.68,24.43,53.31c12.35,3.51,110.45-55.11,127.56-64.91ZM658.38,1011.36h-7.31v3.58h7.31v-3.58ZM1230.38,1044.41v3.68l1.84-1.84-1.84-1.84ZM2916.83,1246.66c7.54-8.75-66.22-73.76-77.5-82.44-23.19-17.85-46.7-38.35-76.96-42.53,38.09,53.69,107.2,77.12,154.46,124.97ZM235.38,1143.73l-36.76,25.67,24.71-.96,12.05-24.71ZM1875.88,1195.17l-20.14-25.7-.07,11.01,20.21,14.69ZM1224.81,1195.17v-7.31h-3.59v7.31h3.59ZM1853.79,1195.17v-7.31h-3.59v7.31h3.59ZM152.11,1196.54c-4.94,4.43-12.98,15.04-3.14,20.63l12.91-20.12c1.97-10.01-7.73-2.34-9.77-.51ZM2854.3,1206.27h-7.31v3.58h7.31v-3.58ZM1412.42,1213.6c-8.04-8.81-37.77,46.2-41.44,50.42-3.84,4.41-14.25,2.79-16.65,5.49-2.23,2.52-29.93,62.23-41.16,39.77l9.19-14.68-64.4,62.37,49.68-36.71,7.26,14.64c43.53-30.93,91.45-63.76,97.52-121.29ZM1199.11,1217.3c-8.03-1.4-15.72,3.54-18.39,10.94,3.45,3.13,20.87-8.71,18.39-10.94ZM290.52,1224.63c-18.9,3.14-17.96,46.09-20.43,51.68-2.63,5.96-29.02,42.26-30.29,45.71-.4,1.1,7.67,5.93,5.27,12.92-8.08,23.55-14.16,38.01-21.42,63.64-1.77,6.25-12.28,7-13.6,12.29-1.72,6.86,1.58,44.66-4.04,56.44,16.81,20.94,58.99-102.6,61.35-109.63,13.09-39,35.35-94.74,23.17-133.06ZM1167.84,1228.29v3.68l1.84-1.84-1.84-1.84ZM1125.55,1276.05l47.8-34.82c-4.4-22.23-45.7,30-47.8,34.82ZM1942.09,1242.97l-7.18,5.4,3.23,10.52,16.9,9.75-12.95-25.67ZM2320.98,1276.05l16.58-7.28-3.71-18.33-12.87,25.61ZM411.97,1367.99c25.34-20.13,18.26-79.63,22.02-110.28-25.36,30.78-6.43,75.57-22.02,110.28ZM507.16,1261.81l-17.92-4.11c-5.78,20.37,1.38,39.28-.2,60.04l9.38,6.08,8.74-62ZM2843.21,1301.8l14.51-27.17-32.79-16.9,18.28,44.07ZM393.57,1261.43c-.21-.32-7.74-1.48-7.38,1.84-.74,7.3.88,7.15,5.56,1.79,1.36-.86,2.58-2.44,1.81-3.63ZM404.56,1276.07v-7.31h-3.59v7.31h3.59ZM1971.52,1272.47c-.34-.45-10.8-3.07-10.92-1.93,2.75,7.06,14.55,6.76,10.92,1.93ZM1934.76,1287.08c1.2-1.43-2.16-3.95-3.68-5.49-8.67-5.73-2.26,12.57,3.68,5.49ZM1096.17,1305.52l25.61-16.55-12.71-5.45-12.89,22ZM1973.58,1314.46c-7.45-5.6-18.62-18.51-26.16-20.21l-12.53,7.76,112.08,102.7,5.11-12.36c-16.19-25.28-32.4-27.57-52.27-47.39-3.7-3.69,1.48-12.99.99-13.45-1.18-1.09-19.7-11.39-27.23-17.05ZM2121.18,1383.95c-36.45-29.15-91.3-63.29-131.25-89.42l14.75,36.76,33.03,16.58-7.29,9.1,64.44,29.37,1.86,27.86,46.08-1.82,1.46-11.04c-14.36.39-16.87-12.42-23.08-17.39ZM834.92,1298.16l-14.56,9.16,13.07,56.68,19.37-8.73-17.87-57.12ZM1026.21,1309.24c-.66-.43-10.49-.37-10.99,0-6.53,4.77,17.56,4.31,10.99,0ZM1096.09,1323.89l-11.32-13.25c-11.42,15.26-30.74,9.71-36.47,31.61l47.79-18.36ZM1011.5,1312.92c-12.84-4.58-96.25,41.2-80.9,55.1l21.97-1.92,58.93-53.17ZM2714.6,1437.91c28.56-27.28,27.84-68.15,24.96-104.07l-15.84-13.5c-10.59,38.05-18.92,78.31-9.12,117.57ZM2979.36,1342.27l-9.1-22.02-2,12.88,11.1,9.14ZM2902.14,1323.95l-10.98,2.57-3.71,23.1,14.69-25.67ZM1040.92,1327.61c-8.47-6.43-8.2,7.02-1.79,7.31,3.23.14,2.09-7.08,1.79-7.31ZM2298.88,1327.61c-21.32,21.56-65.9,63.88-60.67,95.5,19.39-29.95,58.72-59.12,60.67-95.5ZM182.07,1331.26v3.68l1.84-1.84-1.84-1.84ZM110.33,1334.97c-4.28-4.37-31.11,17.81-31.96,19.47-3.31,6.45-13.11,130.54-12.42,144.16,1.11,21.87,13.69,32.78,17.9,48.86,2.73,10.43-13.53,17.67-1.01,26.48,25.39-28.14-6.5-55.98,20.16-80.82l-18.39,7.27-1.94-29.92,12.97-14.12-14.61-5.54,29.31-115.84ZM600.89,1424.53c-9.49,17.08-15.84,39.97,4.09,53.8l171.05-90.07-27.31-46.44c-26.3-13.09-33.39,17.62-35.4,18.82-1.64.99-7.8-3.54-10.89-1.77-20.06,11.48-45.91,31.48-66.29,44.26-6.53,4.09-15.8-3.44-18.16-2.02-1.24.75-16.4,22.16-17.1,23.42ZM494.72,1342.29v3.68l1.84-1.84-1.84-1.84ZM2880.05,1342.34l-12.89,3.59-1.77,7.37,9.11-5.69,5.56-5.27ZM987.61,1345.97v3.68l1.84-1.84-1.84-1.84ZM1018.85,1360.7l-10.99,10.99h10.99s0-10.99,0-10.99ZM433.97,1401.12c2.7-11.15,9.82-29.88-3.57-36.75,2.12,8.93-13.1,38.44,3.57,36.75ZM489.19,1449.02l-10.93-5.59c33.49-11.68,16.45-52.04,18.26-79.05-18.64,11.16-2.51,33.47-3.66,51.44-24.21-16.71-39.44,45.66-23.88,47.75l20.21-14.55ZM1980.09,1399.91c-3.45-2.98-36.94-40.68-41.65-35.51,11.68,38.25,47.61,46.5,79.04,69.87-2.82-19.32-25.62-24.19-37.39-34.36ZM570.18,1386.41l7.21-5.49-10.9-12.86,3.69,18.35ZM1201.55,1399.84c7.87-5.26,19.36-21.5,30.57-26.28l-15.75-5.4-34.67,24.88c-22.51-11.75-6.7,1.33-15.68,6.27-10.71,5.89-33.63,11.39-36.78,23.87,20.25,1.76,55.86-12.34,72.31-23.34ZM381.04,1432.94c3.35-19.58,22.41-38.95,3.22-61.2l-20.08,7.4,14.63,14.64-22.01,5.55-1.84,27.48-38.7-5.52-3.58,12.93,22.06.05-11.1,55.12-21.96-36.75c-6.29,38.71-51.84,34.62-29.36,84.45l32.87-9.35,13.06-30.95-9.26,36.67,24.83,1.12,17.52-23.09,14.73,11.07c1.55-24.43,10.31-48.27,14.97-71.69.22-1.11-1.94-6.49.02-17.94ZM136.09,1375.44l-11.01-.02v7.31s11.01-7.29,11.01-7.29ZM301.61,1390.06l-7.31-10.96-.02,10.99,7.33-.02ZM1313.13,1379.11l-75.35,22.03-23.92,40.44,53.27-25.76-12.92,23.89,11.04,3.66,47.88-64.25ZM2865.4,1415.84l14.64-20.58-5.56-16.15-9.08,36.73ZM474.46,1393.75l-5.98-10.45-12.35,3.16,5.98,10.45,12.35-3.16ZM892.04,1382.77l-5.95,16.52,5.85,16.44,13.07-12.8-12.98-20.16ZM849.65,1386.47h-7.31v3.58h7.31v-3.58ZM327.39,1412.14l14.67-9.1-5.49-5.49-9.17,14.6ZM448.79,1415.84c1.9,1.7,9.56-6.65,7.27-11.03-1.66-1.72-9.6,6.44-7.27,11.03ZM536.98,1412.14v-7.31h-3.59v7.31h3.59ZM2633.58,1548.24c10.65-44.59.12-97.27-5.47-143.47-10.05-.01-7.99,132.65,5.47,143.47ZM564.57,1408.58l1.88,5.47,1.88,1.7v-3.59l-3.77-3.59ZM849.62,1408.51l-9.21,7.24,1.97,14.79,9.21-7.24-1.97-14.79ZM1226.7,1408.49v3.68l1.84-1.84-1.84-1.84ZM2080.05,1408.49v3.68l1.84-1.84-1.84-1.84ZM2920.53,1408.54l-11.01-.02v10.99s11.01-10.96,11.01-10.96ZM434.05,1415.88l-18.5-2.21-7.28,20.52,18.5,2.21,7.28-20.52ZM523.56,1418.08c-2.33-1.72.68-7.39-4.84-5.85l-7.87,20.02,13.3,23.96,12.79-31.16c-3.05-5.11-9.27-3.93-13.38-6.96ZM1118.14,1419.5v-7.31h-3.59v7.31h3.59ZM275.82,1426.88c2.26-4.71-5.56-12.7-7.27-11.03-2.28,4.54,5.45,12.71,7.27,11.03ZM1211.98,1415.85v3.68l1.84-1.84-1.84-1.84ZM452.4,1419.55c-.33-.4-6.59-1.54-7.36,1.86-2.46,10.93,13.12,4.97,7.36-1.86ZM290.58,1423.25c-4.71-2.26-12.71,5.56-11.03,7.27,4.54,2.28,12.72-5.45,11.03-7.27ZM1118.18,1426.93l-140.76,11.65.98,8.5-33.07,34.94c23.78,15.25,178.49-44.66,172.84-55.08ZM948.96,1426.9c-.33-.4-6.59-1.54-7.36,1.86-2.46,10.93,13.12,4.97,7.36-1.86ZM936.11,1430.56v3.68l1.84-1.84-1.84-1.84ZM2905.79,1430.58c-14.62-.03-16.23,18.46-18.35,29.37l14.22-9.64,4.13-19.73ZM143.42,1437.97l-14.66-3.73-11.03,11.05,7.4,18.32,18.29-25.64ZM457.94,1434.23v3.68l1.84-1.84-1.84-1.84ZM781.63,1434.23v3.68l1.84-1.84-1.84-1.84ZM798.15,1448.93l1.92-14.59c-12.87,13.49-42.44,14.84-52.61,18.84-1.6.63-5.44,15.1-14.43,17.2s-18.9-6.78-21.32-6.6c-1.79.13-4.5,18.5-26.82,15.35l-6.32,17.64-14.65-7.28-44.06,69.86,16.45-3.74-14.65,18.29c23.67,45.91,169.6-83.99,191.56-100.81l.15-22.01-15.21-2.15ZM930.57,1434.28h-7.31v3.58h7.31v-3.58ZM255.64,1437.91v3.68l1.84-1.84-1.84-1.84ZM456.06,1456.29l-11.03-16.67-5.41,38.69,5.47-25.68,10.97,3.65ZM918.53,1438.87l-17.34,2.78,11.06,9.13-10.61,14.09,12.39,9.96,20.24-18.55-15.74-17.41ZM176.54,1452.68l-22.06-7.37c-2.36,2.27,23.43,27.42,22.06,7.37ZM297.92,1445.29h-7.26s-3.7,14.68-3.7,14.68l10.97-14.68ZM426.37,1449.35h-25.09s-.31,10.62-.31,10.62l18.34-3.64-7.33,25.68,10.98-2.49,3.42-30.17ZM555.44,1448.97l5.46,10.89,12.81-9.08-18.28-1.81ZM1267.16,1459.98v3.68l1.84-1.84-1.84-1.84ZM254.92,1479.42c1.63-2.7,20.93-2.18,11.8-15.73l-31.06,18.51,8.93,32.84,16.52-7.24-10.54-13.06c.87-5.11,1.62-10.82,4.34-15.32ZM404.58,1478.34l3.61-9.17-12.73-5.46-5.47,5.47,14.59,9.16ZM290.56,1467.36c-.33-.4-6.59-1.54-7.36,1.86-2.46,10.93,13.12,4.97,7.36-1.86ZM134.26,1471.01v3.68l1.84-1.84-1.84-1.84ZM150.79,1482.02l-7.29-11.01-.02,11.01h7.31ZM220.71,1474.73l-14.67-3.76-6.68,21.2,4.76,15.5,16.59-32.94ZM478.23,1537.2c17.6-13.82,25.66-36.59,9.14-55.06l-20.2,25.7,11.06,29.37ZM2955.47,1482.04v3.68l1.84-1.84-1.84-1.84ZM183.22,1486.4c-3.57-2.11-9.65-.19-14-.7l-.06,18.4-18.26,1.84,36.24-6.16c1.08-2.43-2.31-12.43-3.92-13.39ZM2382.89,1624.94l22.76-45.27c-1.58-14.86-126.77-91.76-145.46-93.98-4.11-.49-40.77,24.27-49.54,22.14l14.62,24.14c29.08-9.28,48.16,33.25,75.65,52.87,8.85,6.31,75.74,42.96,81.96,40.1ZM474.49,1496.71l-10.74-5.21-14.99,16.26,25.72-11.05ZM706,1625.26l147.76-108-4.14-27.83-156.4,121.19-5.36,11.12,18.14,3.52ZM143.43,1493.1l-14.69,10.96c8.19,1.43,15.55-1.22,14.69-10.96ZM2813.81,1599.7c7.32-8.96,24.71-103.61,12.86-106.6l-27.49,38.64,14.65,10.92c-26.59,21.3-24.55,65.01-36.45,96.02l29.1-44.52c5.03-6.31,3.34,10.42,7.33,5.54ZM2953.68,1551.91l16.13-33.85-7.05-13.92-9.08,47.76ZM2802.83,1515.1c1.7-1.9-6.65-9.56-11.03-7.27-1.72,1.66,6.44,9.6,11.03,7.27ZM55.17,1518.77c1.7-1.9-6.65-9.56-11.03-7.27-1.72,1.66,6.44,9.6,11.03,7.27ZM470.75,1529.73l-18.28-18.27-.02,44.16,10.99-.03c-9.02-23.18,7.09-24.27,7.31-25.86ZM16.55,1515.14v3.68l1.84-1.84-1.84-1.84ZM106.67,1518.86c-4.71-2.26-12.71,5.56-11.03,7.27,4.54,2.28,12.72-5.45,11.03-7.27ZM941.63,1529.81l-10.99-10.99-.02,11.01,11.01-.02ZM176.58,1529.87l5.49,14.6,5.49-9.04-10.99-5.56ZM235.36,1544.56c2.26-4.71-5.56-12.7-7.27-11.03-2.28,4.54,5.45,12.71,7.27,11.03ZM356.76,1540.96l-14.64-7.43,3.67,18.38,10.97-10.95ZM397.3,1562.95c8.03-.42,14.33-25.29,5.45-25.72l-5.45,25.72ZM2468.09,1537.19l-21.84,16.13,27.4,20.57-5.56-36.69ZM277.71,1559.27v3.68l1.84-1.84-1.84-1.84ZM334.7,1566.65h-7.31v10.99h7.31v-10.99ZM73.51,1607.04l9.26-29.29-10.45,15.21,1.2,14.08ZM2703.49,1577.68c-14.19,2.09-16.86,30.12-22,40.43,12.36-7.81,20.78-26.2,22-40.43ZM325.53,1585.1l-14.8,22.01-36.05-13.3-16.95,8.03c-33.32,32.87,54.08,7.45,65.76,14.31l13.92-14.56-11.89-16.5ZM2937.08,1585.01v3.68l1.84-1.84-1.84-1.84ZM576.37,1617.38c.4-1.39.48-26.4-4.4-28.6l-7.05,29.83,5.11,6.78c-1.49-4.95,6.2-7.53,6.34-8.02ZM639.99,1588.72h-10.99s0,10.99,0,10.99l10.99-10.99ZM2909.47,1592.39c-20.08-.39-25.04,31.65-25.68,47.79,14.36-11.43,26.98-28.54,25.68-47.79ZM2402.47,1618.64l4.67,14.48c68.23,61.55,115.21,16.66,34.18-34.18l-14.73-3.12-24.11,22.81ZM2850.59,1680.62l15.71-26.7,15.61-57.78c-17.1,24.68-31.96,50.28-38.04,79.64l6.72,4.84ZM128.72,1621.77l-5.47-22.02-5.13,15.94,10.6,6.08ZM625.3,1607.03l-11.01-7.29v7.31s11.01-.02,11.01-.02ZM2715.19,1635.76c-1.77-6.43,9.91-20.4-4.27-24.99l-32.58,80.06,23.71,19.23c27.01-.36,24.12-45.8,22.67-63.7-.78-9.62-9.35-9.91-9.54-10.6ZM110.37,1643.83l14.67-9.1-5.49-5.49-9.17,14.6ZM671.28,1629.15v3.68l1.84-1.84-1.84-1.84ZM268.47,1640.15v-7.31h-3.59v7.31h3.59ZM682.32,1632.82v3.68l1.84-1.84-1.84-1.84ZM603.26,1662.22l25.7-20.13-14.18-4.98-11.53,25.11ZM665.74,1636.52c-6.94-1.18-12.23,4.31-10.97,11.01,6.34-3.51,13.44-1.97,10.97-11.01ZM136.48,1654.51c-1.76-.71-2.13-13.73-11.39-10.64l7.24,31.32,36.85,12.76c2.17-1.84-20.88-35.18-22.56-36.51-1.94-1.55-8.31,3.8-10.14,3.07ZM283.23,1662.2l-25.9-13.04c-30.61,26.13,37.33,72.07,54.81,60.36l4.23-56.55c-2.86,6.64-44.65,22.56-40.44,9.28l7.31-.06ZM2790.62,1688.56l-9.28,9.27,5.03,12.22,16.04-9.66-11.79-11.84ZM182.72,1700.22c-1.35-1.3-9.48-5.33-9.79-4.87l.67,8.47,13.97,9.9c.49-4.86-1.38-10.15-4.85-13.49ZM145.75,1729.82c-4.96-4.26-41.96-34.94-46.44-30.75l18.39,51.4,14.74.02,27.27,66.5,97.72,34.72-66.14-16.59c19.21,28.32,58.99,45.12,91.93,36.7l-11.15-27.65,49.8-12.73,7.36,14.65,12.83-5.58-20.94-30.74c-39.19-.11-82.11,9.64-116.34-15.78-14.01-10.4-42.89-50.33-59.03-64.18ZM2754.98,1724.8l-12.86-.38-5.47,11.36,13.8-2.65,4.53-8.32ZM2835.93,1739.52l-55.08,23.86c10.75,13.22,63.69-16.32,55.08-23.86ZM2530.61,1801.97l-7.28-18.36-3.71,18.35h11ZM2361.44,1838.72l12.92-7.27-1.93-11.06-10.98,18.34ZM503.9,1864.53c-.33-.4-6.59-1.54-7.36,1.86-2.46,10.93,13.12,4.97,7.36-1.86ZM2331.97,1875.52v-7.31h-3.59v7.31h3.59ZM213.34,1886.62c-.21-.32-7.74-1.48-7.38,1.84-.74,7.3.88,7.15,5.56,1.79,1.36-.86,2.58-2.44,1.81-3.63ZM2363.28,1890.25v3.68l1.84-1.84-1.84-1.84ZM2418.45,1897.61v3.68l1.84-1.84-1.84-1.84ZM2188.58,2037.33c6.18,3.35,13.99-9.58,12.89-14.6-4.65,7.01-15.69,4.49-12.89,14.6ZM649.17,2070.55c-2.97,4.05,5.51,7.93,7.44,10.85,3.04-3.92-5.43-7.88-7.44-10.85ZM2105.8,2110.91v3.68l1.84-1.84-1.84-1.84ZM454.26,2173.43v3.68l1.84-1.84-1.84-1.84ZM774.27,2272.72v3.68l1.84-1.84-1.84-1.84ZM890.11,2302.19h-7.31v3.58h7.31v-3.58ZM367.8,2324.25h-7.31v3.58h7.31v-3.58ZM871.72,2327.93c-.66-.43-10.49-.37-10.99,0-6.53,4.77,17.56,4.31,10.99,0ZM985.75,2327.91c-.33-.4-6.59-1.54-7.36,1.86-2.46,10.93,13.12,4.97,7.36-1.86ZM1829.93,2331.56v3.68l1.84-1.84-1.84-1.84ZM1046.88,2366.13c-33.13-24.27-76.6-25.69-116.28-30.86l.3,14.4,194.64,66.44-78.66-49.98ZM1040.92,2346.32h-7.31v3.58h7.31v-3.58ZM1147.59,2419.87h-7.31v3.58h7.31v-3.58ZM1195.43,2441.85l-29.4-14.64c-8.33,7.49,25.26,16.8,29.4,14.64ZM408.24,2452.9v-7.31h-3.59v7.31h3.59ZM1235.89,2456.56l-12.9-10.88-5.47,5.43,18.37,5.45ZM1723.26,2449.25v3.68l1.84-1.84-1.84-1.84ZM1486.05,2467.63l10.91-5.52-14.62-9.15,3.71,14.67ZM1250.58,2456.65c-.66-.43-10.49-.37-10.99,0-6.53,4.77,17.56,4.31,10.99,0ZM1261.62,2460.33h-7.31v3.58h7.31v-3.58ZM1508.06,2460.33h-7.31v3.58h7.31v-3.58ZM419.32,2471.27c1.2-1.43-2.16-3.95-3.68-5.49-8.67-5.73-2.26,12.57,3.68,5.49ZM1377.51,2463.96v3.68l1.84-1.84-1.84-1.84ZM1276.33,2467.68h-7.31v3.58h7.31v-3.58ZM1386.67,2475.05l-12.36-3.18-5.98,10.45,18.33-7.27ZM1412.45,2475.03l-11.01,1.77c4.89,6.95,7.91,6.24,11.01-1.77ZM1495.21,2489.7v3.68l1.84-1.84-1.84-1.84ZM448.73,2511.74l-14.59,5.51,31.67,61.06,23.38-.38c2.66-3.14-44.91-57.95-40.45-66.19Z"/>
      <path d="M562.77,2647.84l5.49-11.05-20.35.97-55.14-131.51c31.75-24.53,10.24-54.58,9.4-89.77-.37-15.73-5.68-43.91-5.51-46.34s10.71-4.63,10.76-8.43c1.11-99.96,1.9-201.69.21-302.26,18.4,6.87,6.12-40.51,12.61-51.71l19.05,6.16c7.51,175.51-29.16,390.94,17.9,560.46,7.11,25.61,40.28,47.92,16.61,73.49h-11.03Z"/>
      <path d="M2335.17,2041.57l-3.89,66.77-17.63,9.98,11.29,5.67-12.04,201.79-21.31,13.15c-6.68-8.91,10.39-71.24,11.12-83.04.1-1.66-8.3-9.64-7.19-28.88,1.31-22.82,4.19-62.89,7.38-87.82,4.73-36.96,16.1-63.2,18.48-97.68l13.79.07Z"/>
      <path d="M2354.06,1974.85c2.25,2.31-10.33,60.46-21.98,58.81-12.19-23.57,5.93-33.52,5.11-55.26l16.87-3.55Z"/>
      <path d="M1883.29,33.06V0s40.34,27.6,40.34,27.6c-17.78-8.75-23.56,2.65-40.34,5.45Z"/>
      <path d="M2316.75,2379.92c2.69,1.7,3.37,11.13,3.19,14.96-2.11,47.2-46.04-41.94-3.19-14.96Z"/>
      <polygon points="2361.38 1949.07 2343.09 1945.41 2356.01 1927.06 2364.97 1932.89 2361.38 1949.07"/>
      <polygon points="503.96 669.31 518.59 665.62 509.44 694.95 503.96 669.31"/>
      <polygon points="537.01 636.19 518.68 636.2 531.5 614.22 537.01 636.19"/>
      <polygon points="2339.39 1967.46 2348.5 1949.12 2354.06 1958.23 2339.39 1967.46"/>
      <polygon points="595.85 2618.39 586.7 2614.72 584.89 2596.35 595.85 2618.39"/>
      <polygon points="503.9 739.2 498.41 750.11 489.21 746.48 503.9 739.2"/>
      <path d="M1383,139.77c-1.86,8.12-19.51,1.75-25.7,3.59,1.41-8.01,19.29-1.82,25.7-3.59Z"/>
      <path d="M1780.25,58.86c-.37,7.74-16.42,2.05-22.02,3.59.37-7.74,16.42-2.05,22.02-3.59Z"/>
      <path d="M1342.56,139.77c-1.66,6.9-8.21,8.3-14.69,7.26-1.48-5,13.28-8.58,14.69-7.26Z"/>
      <polygon points="507.58 698.76 496.61 706.07 496.59 698.74 507.58 698.76"/>
      <path d="M537.07,610.45l1.77-11.01c6.95,4.89,6.24,7.91-1.77,11.01Z"/>
      <path d="M1669.92,84.61c1.69,1.81-6.49,9.54-11.03,7.27-1.68-1.7,6.32-9.53,11.03-7.27Z"/>
      <path d="M1807.31,56.56c-2.17,1.4-6.44,19.16-8.63-1.36l21.97-5.62-3.6,3.75c-3.65.33-6.64,1.23-9.74,3.23Z"/>
      <path d="M2372.52,1996.93c8.16.13,3.06,12.2-1.93,14.59-2.67-.28,3.52-11.06,1.93-14.59Z"/>
      <path d="M1434.5,128.74c6.57,4.31-17.52,4.77-10.99,0,.5-.37,10.33-.43,10.99,0Z"/>
      <path d="M1471.28,125.06c6.57,4.31-17.52,4.77-10.99,0,.5-.37,10.33-.43,10.99,0Z"/>
      <path d="M411.96,2405.07c-5.94,7.08-12.35-11.23-3.68-5.49,1.52,1.54,4.88,4.06,3.68,5.49Z"/>
      <path d="M1563.23,106.67c6.57,4.31-17.52,4.77-10.99,0,.5-.37,10.33-.43,10.99,0Z"/>
      <path d="M1618.41,95.64c6.57,4.31-17.52,4.77-10.99,0,.5-.37,10.33-.43,10.99,0Z"/>
      <path d="M1721.4,73.58c6.57,4.31-17.52,4.77-10.99,0,.5-.37,10.33-.43,10.99,0Z"/>
      <rect x="301.64" y="1927.08" width="7.31" height="3.58"/>
      <rect x="1857.54" y="40.48" width="7.31" height="3.58"/>
      <rect x="1522.82" y="114.03" width="7.31" height="3.58"/>
      <rect x="1482.36" y="121.38" width="7.31" height="3.58"/>
      <rect x="515" y="654.61" width="3.59" height="7.31"/>
      <polygon points="972.9 239.02 974.74 240.86 972.9 242.7 972.9 239.02"/>
      <polygon points="1440.04 125.01 1441.87 126.85 1440.04 128.69 1440.04 125.01"/>
      <polygon points="1495.21 117.66 1497.05 119.5 1495.21 121.34 1495.21 117.66"/>
      <polygon points="1627.63 91.92 1629.47 93.76 1627.63 95.59 1627.63 91.92"/>
      <polygon points="1649.7 88.24 1651.53 90.08 1649.7 91.92 1649.7 88.24"/>
      <polygon points="1675.44 80.88 1677.28 82.72 1675.44 84.56 1675.44 80.88"/>
      <polygon points="1737.97 66.17 1739.81 68.01 1737.97 69.85 1737.97 66.17"/>
      <polygon points="1874.07 36.75 1875.91 38.59 1874.07 40.43 1874.07 36.75"/>
      <path d="M1205.52,1652.18l45,48.62-4.1,8.82c-21.83,7.47-16.4-9.73-20.02-10.83-26.21-8.04-45.4,3.21-62.07-25.39l-33.32,32.94-10.89-11.15-13.06,25.94c-19.36-10.84-6.19,11.39-15.18,25.14l-21.48.61,12.77,11.01,84.98-40.64,23.24,23.41-29.24,12.47-14.47-9.96-3.78,18.38-29.25-1.83c-10.07,4.44-6.03,52.8-60.21,53.39l-6.09-7.4c5.94,31.74-30.07,63.8-45.22,92.91-7.95,15.27-48.26,100.42-49.54,112.11-1.12,10.15-1.33,20.14-.9,30.3l22.02-7.34,9.17,44.19c14.08,21.13,85.33,6.78,109.36,2.58,51.23-8.96,149.96-34.69,194.21-59.58,67.49-37.96,80.04-94.93,123.05-153.09l20.16,2.44,7.61,20.04,9.82-4.86c14.96-15.05,3.5-37.64,4.8-39.25,1.15-1.42,22.35,4.12,20.23-18.4,27.86-4.07,6.3,162.07,9.31,178.16,1.31,7.03,42.48,69.12,55.65,73.17,75.76,17.68,171.12,40.95,153.72-76.46-3.87-26.14-57.89-90.7-39.28-107.76,25.11-23.01,72.92,26.61,80.21,48.44,4.67,13.99,12.87,114.68,10.45,132.05-6.01,43.06-42.99,70.21-82.11,57.7l5.15,14.56c-57.8,28.53-134.77,29.39-184.02-16.35-38.49-35.74-41.04-103.49-75.42-145.59-6.54-1.55-88.4,69.23-108.63,79.33-6.96,3.48-16.91-3.28-18.08-1.91-1.44,1.7,2.16,14.77-.65,17.79-10.89,11.67-40.74,27-52.76,41l-11.01-25.68-1.84,14.72-29.34-22.09c-3.01,37.61-57.76,16.76-84.63,40.5l7.43,16.6c-43.05,19.71-98.09-5.06-130.62,16.4l-9.37-29.31c-23.29,7.78-50.58,9.06-55.01-22.14l33,16.63-38.75-42.19c-17.1-81.96,1.44-142.72,46.79-211.02,8.67-13.06,27.82-22.84,32.56-29.96,41.22-61.91,70.91-130.67,137.86-171l10.89,14.5,28.66-37.53,42.26,1.85ZM1489.65,2029.98v-7.31h-3.59v7.31h3.59ZM1239.57,2070.5c-14.7-2.05-31.03,7.19-40.46,18.3l40.46-18.3ZM1046.46,2121.94v3.68l1.84-1.84-1.84-1.84ZM1085.06,2129.34c-5.42-1.23-7.8,1.64-10.92,5.52,3.34.72,12.62-1.49,10.92-5.52ZM1638.66,2147.68v3.68l1.84-1.84-1.84-1.84Z"/>
      <polygon points="1508.03 1154.73 1500.76 1145.32 1506.24 1129.09 1511.86 1138.11 1508.03 1154.73"/>
      <polygon points="1261.62 1713.75 1257.5 1727.96 1246.95 1728.42 1250.51 1715.47 1261.62 1713.75"/>
      <polygon points="1614.73 1982.22 1603.74 1993.2 1603.74 1982.22 1614.73 1982.22"/>
      <polygon points="1456.56 1835.07 1445.58 1835.07 1445.57 1827.79 1456.54 1824.06 1456.56 1835.07"/>
      <path d="M1129.22,1765.26c.77,1.19-.46,2.77-1.81,3.63-4.69,5.36-6.31,5.51-5.56-1.79-.36-3.32,7.17-2.16,7.38-1.84Z"/>
      <rect x="1177.06" y="2114.63" width="7.31" height="3.58"/>
      <polygon points="803.74 1577.75 803.74 1581.34 799.98 1584.92 798.27 1583.22 803.74 1577.75"/>
      <path d="M906.98,1072.5c-.09.68-9.49,2.79-5.78,10.48l18.43,7.45-14.74,23.82-3.76-22.06-7.28,3.71,3.62-25.74-36.72-9.16c9.44-12.59,43.52-26.23,50.47-7.02.94,6.32-3.53,13.4-4.24,18.5Z"/>
      <path d="M893.77,1202.52c-10.41-6.97-12.29-22.48-7.25-33.04l7.25,33.04Z"/>
      <path d="M941.61,1081.21c5.77,6.84-9.81,12.79-7.36,1.86.77-3.4,7.02-2.26,7.36-1.86Z"/>
      <path d="M1758.2,606.82c.77,1.19-.46,2.77-1.81,3.63-4.69,5.36-6.31,5.51-5.56-1.79-.36-3.32,7.17-2.16,7.38-1.84Z"/>
      <path d="M908.48,1128.97c-4.31,6.57-4.77-17.52,0-10.99.37.5.43,10.33,0,10.99Z"/>
      <rect x="1798.71" y="562.67" width="3.59" height="7.31"/>
      <polygon points="632.64 739.19 632.67 750.18 623.42 753.79 625.33 739.16 632.64 739.19"/>
      <polygon points="360.43 1496.66 342.32 1498.23 349.49 1463.67 360.43 1496.66"/>
      <polygon points="356.79 1434.28 345.78 1441.57 345.78 1434.26 356.79 1434.28"/>
      <polygon points="283.2 1518.79 275.89 1518.79 281.41 1507.81 283.2 1518.79"/>
      <path d="M286.86,1504.09c-4.31,6.57-4.77-17.52,0-10.99.37.5.43,10.33,0,10.99Z"/>
      <rect x="375.2" y="1401.18" width="7.31" height="3.58"/>
      <polygon points="1178.88 338.31 1180.72 340.15 1178.88 341.99 1178.88 338.31"/>
      <polygon points="487.37 1426.88 489.21 1428.72 487.37 1430.56 487.37 1426.88"/>
    </g>
  </g>
</svg>